<svg width="140.000000" height="69.000000" viewBox="0 0 140 69" fill="none" xmlns="http://www.w3.org/2000/svg" xmlns:xlink="http://www.w3.org/1999/xlink">
	<desc>
			Created with Pixso.
	</desc>
	<defs>
		<linearGradient x1="26.449638" y1="34.230988" x2="85.360191" y2="34.230988" id="paint_linear_76_333_0" gradientUnits="userSpaceOnUse">
			<stop offset="0.123666" stop-color="#88D8FF"/>
			<stop offset="1.000000" stop-color="#0179B4"/>
		</linearGradient>
	</defs>
	<path id="Vector" d="M2.43 0.03C3.41 0.2 4.16 1.11 4.16 2.08C4.16 2.2 4.15 2.31 4.13 2.43C3.93 3.53 2.83 4.33 1.73 4.13C0.74 3.95 0 3.04 0 2.07C0 1.95 0 1.84 0.03 1.73C0.23 0.63 1.33 -0.17 2.43 0.03ZM15.93 0.03C16.91 0.21 17.66 1.11 17.66 2.08L17.66 2.08C17.66 2.2 17.65 2.31 17.63 2.43C17.43 3.53 16.33 4.33 15.23 4.13C14.24 3.95 13.5 3.04 13.5 2.07C13.5 1.95 13.51 1.84 13.53 1.73C13.73 0.63 14.83 -0.17 15.93 0.03ZM29.53 0.03C30.51 0.21 31.26 1.11 31.26 2.08C31.26 2.2 31.25 2.31 31.23 2.43C31.03 3.53 29.93 4.33 28.83 4.13C27.84 3.95 27.09 3.04 27.09 2.07C27.09 1.95 27.1 1.84 27.13 1.73C27.33 0.63 28.33 -0.17 29.53 0.03ZM43.03 0.03C44.01 0.21 44.76 1.11 44.76 2.08C44.76 2.2 44.75 2.31 44.73 2.43C44.53 3.53 43.43 4.33 42.33 4.13C41.34 3.95 40.59 3.04 40.59 2.07C40.59 1.95 40.6 1.84 40.63 1.73C40.83 0.63 41.93 -0.17 43.03 0.03ZM56.53 0.03C57.51 0.21 58.26 1.11 58.26 2.08C58.26 2.2 58.25 2.31 58.23 2.43C58.03 3.53 56.93 4.33 55.83 4.13C54.84 3.95 54.09 3.04 54.09 2.07C54.09 1.95 54.1 1.84 54.13 1.73C54.33 0.63 55.43 -0.17 56.53 0.03ZM70.13 0.03C71.11 0.21 71.86 1.11 71.86 2.08C71.86 2.2 71.85 2.31 71.83 2.43C71.63 3.53 70.53 4.33 69.43 4.13C68.44 3.95 67.7 3.04 67.7 2.07C67.7 1.95 67.71 1.84 67.73 1.73C67.83 0.63 68.93 -0.17 70.13 0.03ZM83.63 0.03C84.61 0.21 85.36 1.11 85.36 2.08C85.36 2.2 85.35 2.31 85.33 2.43C85.13 3.53 84.03 4.33 82.93 4.13C81.94 3.95 81.2 3.04 81.2 2.07C81.2 1.95 81.21 1.84 81.23 1.73C81.43 0.63 82.53 -0.17 83.63 0.03ZM97.13 0.03C98.11 0.21 98.86 1.11 98.86 2.08C98.86 2.2 98.85 2.31 98.83 2.43C98.63 3.53 97.53 4.33 96.43 4.13C95.44 3.95 94.7 3.04 94.7 2.07C94.7 1.95 94.71 1.84 94.73 1.73C94.93 0.63 96.03 -0.17 97.13 0.03ZM110.63 0.03C111.61 0.21 112.36 1.11 112.36 2.08C112.36 2.2 112.35 2.31 112.33 2.43C112.13 3.53 111.03 4.33 109.93 4.13C108.94 3.95 108.2 3.04 108.2 2.07C108.2 1.95 108.21 1.84 108.23 1.73C108.43 0.63 109.53 -0.17 110.63 0.03ZM124.23 0.03C125.21 0.21 125.96 1.11 125.96 2.08C125.96 2.2 125.95 2.31 125.93 2.43C125.73 3.53 124.63 4.33 123.53 4.13C122.54 3.95 121.8 3.04 121.8 2.07C121.8 1.95 121.81 1.84 121.83 1.73C122.03 0.63 123.03 -0.17 124.23 0.03ZM137.73 0.03C138.71 0.21 139.46 1.11 139.46 2.08C139.46 2.2 139.45 2.31 139.43 2.43C139.23 3.53 138.13 4.33 137.03 4.13C136.04 3.95 135.3 3.04 135.3 2.07C135.3 1.95 135.31 1.84 135.33 1.73C135.53 0.63 136.63 -0.17 137.73 0.03ZM2.43 16.13C3.41 16.31 4.16 17.21 4.16 18.18C4.16 18.3 4.15 18.41 4.13 18.53C3.93 19.63 2.83 20.43 1.73 20.23C0.74 20.05 0 19.14 0 18.17C0 18.05 0 17.94 0.03 17.83C0.23 16.63 1.33 15.93 2.43 16.13ZM15.93 16.13C16.91 16.31 17.66 17.21 17.66 18.18L17.66 18.18C17.66 18.3 17.65 18.41 17.63 18.53C17.43 19.63 16.33 20.43 15.23 20.23C14.24 20.05 13.5 19.14 13.5 18.17C13.5 18.05 13.51 17.94 13.53 17.83C13.73 16.63 14.83 15.93 15.93 16.13ZM29.53 16.13C30.51 16.31 31.26 17.21 31.26 18.18C31.26 18.3 31.25 18.41 31.23 18.53C31.03 19.63 29.93 20.43 28.83 20.23C27.84 20.05 27.09 19.14 27.09 18.17C27.09 18.05 27.1 17.94 27.13 17.83C27.33 16.63 28.33 15.93 29.53 16.13ZM43.03 16.13C44.01 16.31 44.76 17.21 44.76 18.18C44.76 18.3 44.75 18.41 44.73 18.53C44.53 19.63 43.43 20.43 42.33 20.23C41.34 20.05 40.59 19.14 40.59 18.17C40.59 18.05 40.6 17.94 40.63 17.83C40.83 16.63 41.93 15.93 43.03 16.13ZM56.53 16.13C57.51 16.31 58.26 17.21 58.26 18.18C58.26 18.3 58.25 18.41 58.23 18.53C58.03 19.63 56.93 20.43 55.83 20.23C54.84 20.05 54.09 19.14 54.09 18.17C54.09 18.05 54.1 17.94 54.13 17.83C54.33 16.63 55.43 15.93 56.53 16.13ZM70.13 16.13C71.11 16.31 71.86 17.21 71.86 18.18C71.86 18.3 71.85 18.41 71.83 18.53C71.63 19.63 70.53 20.43 69.43 20.23C68.44 20.05 67.7 19.14 67.7 18.17C67.7 18.05 67.71 17.94 67.73 17.83C67.83 16.63 68.93 15.93 70.13 16.13ZM83.63 16.13C84.61 16.31 85.36 17.21 85.36 18.18C85.36 18.3 85.35 18.41 85.33 18.53C85.13 19.63 84.03 20.43 82.93 20.23C81.94 20.05 81.2 19.14 81.2 18.17C81.2 18.05 81.21 17.94 81.23 17.83C81.43 16.63 82.53 15.93 83.63 16.13ZM97.13 16.13C98.11 16.31 98.86 17.21 98.86 18.18C98.86 18.3 98.85 18.41 98.83 18.53C98.63 19.63 97.53 20.43 96.43 20.23C95.44 20.05 94.7 19.14 94.7 18.17C94.7 18.05 94.71 17.94 94.73 17.83C94.93 16.63 96.03 15.93 97.13 16.13ZM110.63 16.13C111.61 16.31 112.36 17.21 112.36 18.18C112.36 18.3 112.35 18.41 112.33 18.53C112.13 19.63 111.03 20.43 109.93 20.23C108.94 20.05 108.2 19.14 108.2 18.17C108.2 18.05 108.21 17.94 108.23 17.83C108.43 16.63 109.53 15.93 110.63 16.13ZM124.23 16.13C125.21 16.31 125.96 17.21 125.96 18.18C125.96 18.3 125.95 18.41 125.93 18.53C125.73 19.63 124.63 20.43 123.53 20.23C122.54 20.05 121.8 19.14 121.8 18.17C121.8 18.05 121.81 17.94 121.83 17.83C122.03 16.63 123.03 15.93 124.23 16.13ZM137.73 16.13C138.71 16.31 139.46 17.21 139.46 18.18C139.46 18.3 139.45 18.41 139.43 18.53C139.23 19.63 138.13 20.43 137.03 20.23C136.04 20.05 135.3 19.14 135.3 18.17C135.3 18.05 135.31 17.94 135.33 17.83C135.53 16.63 136.63 15.93 137.73 16.13ZM2.43 32.23C3.41 32.41 4.16 33.31 4.16 34.28C4.16 34.4 4.15 34.51 4.13 34.63C3.93 35.73 2.83 36.53 1.73 36.33C0.74 36.15 0 35.24 0 34.27C0 34.15 0 34.04 0.03 33.93C0.23 32.73 1.33 31.93 2.43 32.23ZM15.93 32.23C16.91 32.41 17.66 33.31 17.66 34.28C17.66 34.4 17.65 34.51 17.63 34.63C17.43 35.73 16.33 36.53 15.23 36.33C14.24 36.15 13.5 35.24 13.5 34.27C13.5 34.15 13.51 34.04 13.53 33.93C13.73 32.73 14.83 31.93 15.93 32.23ZM29.53 32.23C30.51 32.41 31.26 33.31 31.26 34.28C31.26 34.4 31.25 34.51 31.23 34.63C31.03 35.73 29.93 36.53 28.83 36.33C27.84 36.15 27.09 35.24 27.09 34.27C27.09 34.15 27.1 34.04 27.13 33.93C27.33 32.73 28.33 31.93 29.53 32.23ZM43.03 32.23C44.01 32.41 44.76 33.31 44.76 34.28C44.76 34.4 44.75 34.51 44.73 34.63C44.53 35.73 43.43 36.53 42.33 36.33C41.34 36.15 40.59 35.24 40.59 34.27C40.59 34.15 40.6 34.04 40.63 33.93C40.83 32.73 41.93 31.93 43.03 32.23ZM56.53 32.23C57.51 32.41 58.26 33.31 58.26 34.28C58.26 34.4 58.25 34.51 58.23 34.63C58.03 35.73 56.93 36.53 55.83 36.33C54.84 36.15 54.09 35.24 54.09 34.27C54.09 34.15 54.1 34.04 54.13 33.93C54.33 32.73 55.43 31.93 56.53 32.23ZM70.13 32.23C71.11 32.41 71.86 33.31 71.86 34.28C71.86 34.4 71.85 34.51 71.83 34.63C71.63 35.73 70.53 36.53 69.43 36.33C68.44 36.15 67.7 35.24 67.7 34.27C67.7 34.15 67.71 34.04 67.73 33.93C67.83 32.73 68.93 31.93 70.13 32.23ZM83.63 32.23C84.61 32.41 85.36 33.31 85.36 34.28C85.36 34.4 85.35 34.51 85.33 34.63C85.13 35.73 84.03 36.53 82.93 36.33C81.94 36.15 81.2 35.24 81.2 34.27C81.2 34.15 81.21 34.04 81.23 33.93C81.43 32.73 82.53 31.93 83.63 32.23ZM97.13 32.23C98.11 32.41 98.86 33.31 98.86 34.28C98.86 34.4 98.85 34.51 98.83 34.63C98.63 35.73 97.53 36.53 96.43 36.33C95.44 36.15 94.7 35.24 94.7 34.27C94.7 34.15 94.71 34.04 94.73 33.93C94.93 32.73 96.03 31.93 97.13 32.23ZM110.02 32.18C111.17 32.03 112.23 32.83 112.39 33.98C112.4 34.08 112.41 34.17 112.41 34.26C112.41 35.3 111.64 36.2 110.59 36.34C109.44 36.5 108.38 35.7 108.22 34.55C108.21 34.45 108.21 34.36 108.21 34.26C108.21 33.23 108.97 32.33 110.02 32.18ZM125.89 33.98C125.9 34.08 125.91 34.18 125.91 34.27C125.91 35.3 125.14 36.2 124.09 36.35C122.94 36.5 121.88 35.7 121.73 34.55C121.71 34.46 121.71 34.36 121.71 34.27C121.71 33.23 122.47 32.33 123.52 32.19C124.67 32.03 125.73 32.83 125.89 33.98ZM139.39 33.99C139.4 34.08 139.41 34.18 139.41 34.27C139.41 35.31 138.64 36.21 137.59 36.35C136.44 36.51 135.38 35.7 135.22 34.56C135.21 34.46 135.21 34.36 135.21 34.27C135.21 33.24 135.97 32.33 137.02 32.19C138.17 32.03 139.23 32.84 139.39 33.99ZM2.43 48.23C3.41 48.41 4.16 49.31 4.16 50.28C4.16 50.4 4.15 50.51 4.13 50.63C3.93 51.73 2.83 52.53 1.73 52.33C0.74 52.15 0 51.24 0 50.27C0 50.15 0 50.04 0.03 49.93C0.23 48.83 1.33 48.03 2.43 48.23ZM15.93 48.23C16.91 48.41 17.66 49.31 17.66 50.28C17.66 50.4 17.65 50.51 17.63 50.63C17.43 51.73 16.33 52.53 15.23 52.33C14.24 52.15 13.5 51.24 13.5 50.27C13.5 50.15 13.51 50.04 13.53 49.93C13.73 48.83 14.83 48.03 15.93 48.23ZM29.53 48.23C30.51 48.41 31.26 49.31 31.26 50.28C31.26 50.4 31.25 50.51 31.23 50.63C31.03 51.73 29.93 52.53 28.83 52.33C27.84 52.15 27.09 51.24 27.09 50.27C27.09 50.15 27.1 50.04 27.13 49.93C27.33 48.83 28.33 48.03 29.53 48.23ZM43.03 48.23C44.01 48.41 44.76 49.31 44.76 50.28C44.76 50.4 44.75 50.51 44.73 50.63C44.53 51.73 43.43 52.53 42.33 52.33C41.34 52.15 40.59 51.24 40.59 50.27C40.59 50.15 40.6 50.04 40.63 49.93C40.83 48.83 41.93 48.03 43.03 48.23ZM56.53 48.23C57.51 48.41 58.26 49.31 58.26 50.28C58.26 50.4 58.25 50.51 58.23 50.63C58.03 51.73 56.93 52.53 55.83 52.33C54.84 52.15 54.09 51.24 54.09 50.27C54.09 50.15 54.1 50.04 54.13 49.93C54.33 48.83 55.43 48.03 56.53 48.23ZM70.13 48.23C71.11 48.41 71.86 49.31 71.86 50.28C71.86 50.4 71.85 50.51 71.83 50.63C71.63 51.73 70.53 52.53 69.43 52.33C68.44 52.15 67.7 51.24 67.7 50.27C67.7 50.15 67.71 50.04 67.73 49.93C67.83 48.83 68.93 48.03 70.13 48.23ZM83.63 48.23C84.61 48.41 85.36 49.31 85.36 50.28C85.36 50.4 85.35 50.51 85.33 50.63C85.13 51.73 84.03 52.53 82.93 52.33C81.94 52.15 81.2 51.24 81.2 50.27C81.2 50.15 81.21 50.04 81.23 49.93C81.43 48.83 82.53 48.03 83.63 48.23ZM97.13 48.23C98.11 48.41 98.86 49.31 98.86 50.28C98.86 50.4 98.85 50.51 98.83 50.63C98.63 51.73 97.53 52.53 96.43 52.33C95.44 52.15 94.7 51.24 94.7 50.27C94.7 50.15 94.71 50.04 94.73 49.93C94.93 48.83 96.03 48.03 97.13 48.23ZM112.43 50.33C112.43 51.49 111.49 52.43 110.33 52.43C109.17 52.43 108.23 51.49 108.23 50.33C108.23 49.17 109.17 48.23 110.33 48.23C111.49 48.23 112.43 49.17 112.43 50.33ZM125.93 50.33C125.93 51.49 124.99 52.43 123.83 52.43C122.67 52.43 121.73 51.49 121.73 50.33C121.73 49.17 122.67 48.23 123.83 48.23C124.99 48.23 125.93 49.17 125.93 50.33ZM139.42 50.33C139.42 51.49 138.49 52.43 137.33 52.43C136.17 52.43 135.23 51.49 135.23 50.33C135.23 49.17 136.17 48.23 137.33 48.23C138.49 48.23 139.42 49.17 139.42 50.33ZM2.43 64.33C3.41 64.51 4.16 65.41 4.16 66.38C4.16 66.5 4.15 66.61 4.13 66.73C3.93 67.83 2.83 68.63 1.73 68.43C0.74 68.25 0 67.34 0 66.37C0 66.25 0 66.14 0.03 66.03C0.23 64.83 1.33 64.13 2.43 64.33ZM15.93 64.33C16.91 64.51 17.66 65.41 17.66 66.38C17.66 66.5 17.65 66.61 17.63 66.73C17.43 67.83 16.33 68.63 15.23 68.43C14.24 68.25 13.5 67.34 13.5 66.37C13.5 66.25 13.51 66.14 13.53 66.03C13.73 64.83 14.83 64.13 15.93 64.33ZM29.53 64.33C30.51 64.51 31.26 65.41 31.26 66.38C31.26 66.5 31.25 66.61 31.23 66.73C31.03 67.83 29.93 68.63 28.83 68.43C27.84 68.25 27.09 67.34 27.09 66.37C27.09 66.25 27.1 66.14 27.13 66.03C27.33 64.83 28.33 64.13 29.53 64.33ZM43.03 64.33C44.01 64.51 44.76 65.41 44.76 66.38C44.76 66.5 44.75 66.61 44.73 66.73C44.53 67.83 43.43 68.63 42.33 68.43C41.34 68.25 40.59 67.34 40.59 66.37C40.59 66.25 40.6 66.14 40.63 66.03C40.83 64.83 41.93 64.13 43.03 64.33ZM56.53 64.33C57.51 64.51 58.26 65.41 58.26 66.38C58.26 66.5 58.25 66.61 58.23 66.73C58.03 67.83 56.93 68.63 55.83 68.43C54.84 68.25 54.09 67.34 54.09 66.37C54.09 66.25 54.1 66.14 54.13 66.03C54.33 64.83 55.43 64.13 56.53 64.33ZM70.13 64.33C71.11 64.51 71.86 65.41 71.86 66.38C71.86 66.5 71.85 66.61 71.83 66.73C71.63 67.83 70.53 68.63 69.43 68.43C68.44 68.25 67.7 67.34 67.7 66.37C67.7 66.25 67.71 66.14 67.73 66.03C67.83 64.83 68.93 64.13 70.13 64.33ZM83.63 64.33C84.61 64.51 85.36 65.41 85.36 66.38C85.36 66.5 85.35 66.61 85.33 66.73C85.13 67.83 84.03 68.63 82.93 68.43C81.94 68.25 81.2 67.34 81.2 66.37C81.2 66.25 81.21 66.14 81.23 66.03C81.43 64.83 82.53 64.13 83.63 64.33ZM97.13 64.33C98.11 64.51 98.86 65.41 98.86 66.38C98.86 66.5 98.85 66.61 98.83 66.73C98.63 67.83 97.53 68.63 96.43 68.43C95.44 68.25 94.7 67.34 94.7 66.37C94.7 66.25 94.71 66.14 94.73 66.03C94.93 64.83 96.03 64.13 97.13 64.33ZM110.63 64.33C111.61 64.51 112.36 65.41 112.36 66.38C112.36 66.5 112.35 66.61 112.33 66.73C112.13 67.83 111.03 68.63 109.93 68.43C108.94 68.25 108.2 67.34 108.2 66.37C108.2 66.25 108.21 66.14 108.23 66.03C108.43 64.83 109.53 64.13 110.63 64.33ZM124.23 64.33C125.21 64.51 125.96 65.41 125.96 66.38C125.96 66.5 125.95 66.61 125.93 66.73C125.73 67.83 124.63 68.63 123.53 68.43C122.54 68.25 121.8 67.34 121.8 66.37C121.8 66.25 121.81 66.14 121.83 66.03C122.03 64.83 123.03 64.13 124.23 64.33ZM137.73 64.33C138.71 64.51 139.46 65.41 139.46 66.38C139.46 66.5 139.45 66.61 139.43 66.73C139.23 67.83 138.13 68.63 137.03 68.43C136.04 68.25 135.3 67.34 135.3 66.37C135.3 66.25 135.31 66.14 135.33 66.03C135.53 64.83 136.63 64.13 137.73 64.33Z" fill="#000000" fill-opacity="1.000000" fill-rule="evenodd"/>
	<path id="Vector" d="M2.43 0.03C3.41 0.2 4.16 1.11 4.16 2.08C4.16 2.2 4.15 2.31 4.13 2.43C3.93 3.53 2.83 4.33 1.73 4.13C0.74 3.95 0 3.04 0 2.07C0 1.95 0 1.84 0.03 1.73C0.23 0.63 1.33 -0.17 2.43 0.03ZM15.93 0.03C16.91 0.21 17.66 1.11 17.66 2.08L17.66 2.08C17.66 2.2 17.65 2.31 17.63 2.43C17.43 3.53 16.33 4.33 15.23 4.13C14.24 3.95 13.5 3.04 13.5 2.07C13.5 1.95 13.51 1.84 13.53 1.73C13.73 0.63 14.83 -0.17 15.93 0.03ZM29.53 0.03C30.51 0.21 31.26 1.11 31.26 2.08C31.26 2.2 31.25 2.31 31.23 2.43C31.03 3.53 29.93 4.33 28.83 4.13C27.84 3.95 27.09 3.04 27.09 2.07C27.09 1.95 27.1 1.84 27.13 1.73C27.33 0.63 28.33 -0.17 29.53 0.03ZM43.03 0.03C44.01 0.21 44.76 1.11 44.76 2.08C44.76 2.2 44.75 2.31 44.73 2.43C44.53 3.53 43.43 4.33 42.33 4.13C41.34 3.95 40.59 3.04 40.59 2.07C40.59 1.95 40.6 1.84 40.63 1.73C40.83 0.63 41.93 -0.17 43.03 0.03ZM56.53 0.03C57.51 0.21 58.26 1.11 58.26 2.08C58.26 2.2 58.25 2.31 58.23 2.43C58.03 3.53 56.93 4.33 55.83 4.13C54.84 3.95 54.09 3.04 54.09 2.07C54.09 1.95 54.1 1.84 54.13 1.73C54.33 0.63 55.43 -0.17 56.53 0.03ZM70.13 0.03C71.11 0.21 71.86 1.11 71.86 2.08C71.86 2.2 71.85 2.31 71.83 2.43C71.63 3.53 70.53 4.33 69.43 4.13C68.44 3.95 67.7 3.04 67.7 2.07C67.7 1.95 67.71 1.84 67.73 1.73C67.83 0.63 68.93 -0.17 70.13 0.03ZM83.63 0.03C84.61 0.21 85.36 1.11 85.36 2.08C85.36 2.2 85.35 2.31 85.33 2.43C85.13 3.53 84.03 4.33 82.93 4.13C81.94 3.95 81.2 3.04 81.2 2.07C81.2 1.95 81.21 1.84 81.23 1.73C81.43 0.63 82.53 -0.17 83.63 0.03ZM97.13 0.03C98.11 0.21 98.86 1.11 98.86 2.08C98.86 2.2 98.85 2.31 98.83 2.43C98.63 3.53 97.53 4.33 96.43 4.13C95.44 3.95 94.7 3.04 94.7 2.07C94.7 1.95 94.71 1.84 94.73 1.73C94.93 0.63 96.03 -0.17 97.13 0.03ZM110.63 0.03C111.61 0.21 112.36 1.11 112.36 2.08C112.36 2.2 112.35 2.31 112.33 2.43C112.13 3.53 111.03 4.33 109.93 4.13C108.94 3.95 108.2 3.04 108.2 2.07C108.2 1.95 108.21 1.84 108.23 1.73C108.43 0.63 109.53 -0.17 110.63 0.03ZM124.23 0.03C125.21 0.21 125.96 1.11 125.96 2.08C125.96 2.2 125.95 2.31 125.93 2.43C125.73 3.53 124.63 4.33 123.53 4.13C122.54 3.95 121.8 3.04 121.8 2.07C121.8 1.95 121.81 1.84 121.83 1.73C122.03 0.63 123.03 -0.17 124.23 0.03ZM137.73 0.03C138.71 0.21 139.46 1.11 139.46 2.08C139.46 2.2 139.45 2.31 139.43 2.43C139.23 3.53 138.13 4.33 137.03 4.13C136.04 3.95 135.3 3.04 135.3 2.07C135.3 1.95 135.31 1.84 135.33 1.73C135.53 0.63 136.63 -0.17 137.73 0.03ZM2.43 16.13C3.41 16.31 4.16 17.21 4.16 18.18C4.16 18.3 4.15 18.41 4.13 18.53C3.93 19.63 2.83 20.43 1.73 20.23C0.74 20.05 0 19.14 0 18.17C0 18.05 0 17.94 0.03 17.83C0.23 16.63 1.33 15.93 2.43 16.13ZM15.93 16.13C16.91 16.31 17.66 17.21 17.66 18.18L17.66 18.18C17.66 18.3 17.65 18.41 17.63 18.53C17.43 19.63 16.33 20.43 15.23 20.23C14.24 20.05 13.5 19.14 13.5 18.17C13.5 18.05 13.51 17.94 13.53 17.83C13.73 16.63 14.83 15.93 15.93 16.13ZM29.53 16.13C30.51 16.31 31.26 17.21 31.26 18.18C31.26 18.3 31.25 18.41 31.23 18.53C31.03 19.63 29.93 20.43 28.83 20.23C27.84 20.05 27.09 19.14 27.09 18.17C27.09 18.05 27.1 17.94 27.13 17.83C27.33 16.63 28.33 15.93 29.53 16.13ZM43.03 16.13C44.01 16.31 44.76 17.21 44.76 18.18C44.76 18.3 44.75 18.41 44.73 18.53C44.53 19.63 43.43 20.43 42.33 20.23C41.34 20.05 40.59 19.14 40.59 18.17C40.59 18.05 40.6 17.94 40.63 17.83C40.83 16.63 41.93 15.93 43.03 16.13ZM56.53 16.13C57.51 16.31 58.26 17.21 58.26 18.18C58.26 18.3 58.25 18.41 58.23 18.53C58.03 19.63 56.93 20.43 55.83 20.23C54.84 20.05 54.09 19.14 54.09 18.17C54.09 18.05 54.1 17.94 54.13 17.83C54.33 16.63 55.43 15.93 56.53 16.13ZM70.13 16.13C71.11 16.31 71.86 17.21 71.86 18.18C71.86 18.3 71.85 18.41 71.83 18.53C71.63 19.63 70.53 20.43 69.43 20.23C68.44 20.05 67.7 19.14 67.7 18.17C67.7 18.05 67.71 17.94 67.73 17.83C67.83 16.63 68.93 15.93 70.13 16.13ZM83.63 16.13C84.61 16.31 85.36 17.21 85.36 18.18C85.36 18.3 85.35 18.41 85.33 18.53C85.13 19.63 84.03 20.43 82.93 20.23C81.94 20.05 81.2 19.14 81.2 18.17C81.2 18.05 81.21 17.94 81.23 17.83C81.43 16.63 82.53 15.93 83.63 16.13ZM97.13 16.13C98.11 16.31 98.86 17.21 98.86 18.18C98.86 18.3 98.85 18.41 98.83 18.53C98.63 19.63 97.53 20.43 96.43 20.23C95.44 20.05 94.7 19.14 94.7 18.17C94.7 18.05 94.71 17.94 94.73 17.83C94.93 16.63 96.03 15.93 97.13 16.13ZM110.63 16.13C111.61 16.31 112.36 17.21 112.36 18.18C112.36 18.3 112.35 18.41 112.33 18.53C112.13 19.63 111.03 20.43 109.93 20.23C108.94 20.05 108.2 19.14 108.2 18.17C108.2 18.05 108.21 17.94 108.23 17.83C108.43 16.63 109.53 15.93 110.63 16.13ZM124.23 16.13C125.21 16.31 125.96 17.21 125.96 18.18C125.96 18.3 125.95 18.41 125.93 18.53C125.73 19.63 124.63 20.43 123.53 20.23C122.54 20.05 121.8 19.14 121.8 18.17C121.8 18.05 121.81 17.94 121.83 17.83C122.03 16.63 123.03 15.93 124.23 16.13ZM137.73 16.13C138.71 16.31 139.46 17.21 139.46 18.18C139.46 18.3 139.45 18.41 139.43 18.53C139.23 19.63 138.13 20.43 137.03 20.23C136.04 20.05 135.3 19.14 135.3 18.17C135.3 18.05 135.31 17.94 135.33 17.83C135.53 16.63 136.63 15.93 137.73 16.13ZM2.43 32.23C3.41 32.41 4.16 33.31 4.16 34.28C4.16 34.4 4.15 34.51 4.13 34.63C3.93 35.73 2.83 36.53 1.73 36.33C0.74 36.15 0 35.24 0 34.27C0 34.15 0 34.04 0.03 33.93C0.23 32.73 1.33 31.93 2.43 32.23ZM15.93 32.23C16.91 32.41 17.66 33.31 17.66 34.28C17.66 34.4 17.65 34.51 17.63 34.63C17.43 35.73 16.33 36.53 15.23 36.33C14.24 36.15 13.5 35.24 13.5 34.27C13.5 34.15 13.51 34.04 13.53 33.93C13.73 32.73 14.83 31.93 15.93 32.23ZM29.53 32.23C30.51 32.41 31.26 33.31 31.26 34.28C31.26 34.4 31.25 34.51 31.23 34.63C31.03 35.73 29.93 36.53 28.83 36.33C27.84 36.15 27.09 35.24 27.09 34.27C27.09 34.15 27.1 34.04 27.13 33.93C27.33 32.73 28.33 31.93 29.53 32.23ZM43.03 32.23C44.01 32.41 44.76 33.31 44.76 34.28C44.76 34.4 44.75 34.51 44.73 34.63C44.53 35.73 43.43 36.53 42.33 36.33C41.34 36.15 40.59 35.24 40.59 34.27C40.59 34.15 40.6 34.04 40.63 33.93C40.83 32.73 41.93 31.93 43.03 32.23ZM56.53 32.23C57.51 32.41 58.26 33.31 58.26 34.28C58.26 34.4 58.25 34.51 58.23 34.63C58.03 35.73 56.93 36.53 55.83 36.33C54.84 36.15 54.09 35.24 54.09 34.27C54.09 34.15 54.1 34.04 54.13 33.93C54.33 32.73 55.43 31.93 56.53 32.23ZM70.13 32.23C71.11 32.41 71.86 33.31 71.86 34.28C71.86 34.4 71.85 34.51 71.83 34.63C71.63 35.73 70.53 36.53 69.43 36.33C68.44 36.15 67.7 35.24 67.7 34.27C67.7 34.15 67.71 34.04 67.73 33.93C67.83 32.73 68.93 31.93 70.13 32.23ZM83.63 32.23C84.61 32.41 85.36 33.31 85.36 34.28C85.36 34.4 85.35 34.51 85.33 34.63C85.13 35.73 84.03 36.53 82.93 36.33C81.94 36.15 81.2 35.24 81.2 34.27C81.2 34.15 81.21 34.04 81.23 33.93C81.43 32.73 82.53 31.93 83.63 32.23ZM97.13 32.23C98.11 32.41 98.86 33.31 98.86 34.28C98.86 34.4 98.85 34.51 98.83 34.63C98.63 35.73 97.53 36.53 96.43 36.33C95.44 36.15 94.7 35.24 94.7 34.27C94.7 34.15 94.71 34.04 94.73 33.93C94.93 32.73 96.03 31.93 97.13 32.23ZM110.02 32.18C111.17 32.03 112.23 32.83 112.39 33.98C112.4 34.08 112.41 34.17 112.41 34.26C112.41 35.3 111.64 36.2 110.59 36.34C109.44 36.5 108.38 35.7 108.22 34.55C108.21 34.45 108.21 34.36 108.21 34.26C108.21 33.23 108.97 32.33 110.02 32.18ZM125.89 33.98C125.9 34.08 125.91 34.18 125.91 34.27C125.91 35.3 125.14 36.2 124.09 36.35C122.94 36.5 121.88 35.7 121.73 34.55C121.71 34.46 121.71 34.36 121.71 34.27C121.71 33.23 122.47 32.33 123.52 32.19C124.67 32.03 125.73 32.83 125.89 33.98ZM139.39 33.99C139.4 34.08 139.41 34.18 139.41 34.27C139.41 35.31 138.64 36.21 137.59 36.35C136.44 36.51 135.38 35.7 135.22 34.56C135.21 34.46 135.21 34.36 135.21 34.27C135.21 33.24 135.97 32.33 137.02 32.19C138.17 32.03 139.23 32.84 139.39 33.99ZM2.43 48.23C3.41 48.41 4.16 49.31 4.16 50.28C4.16 50.4 4.15 50.51 4.13 50.63C3.93 51.73 2.83 52.53 1.73 52.33C0.74 52.15 0 51.24 0 50.27C0 50.15 0 50.04 0.03 49.93C0.23 48.83 1.33 48.03 2.43 48.23ZM15.93 48.23C16.91 48.41 17.66 49.31 17.66 50.28C17.66 50.4 17.65 50.51 17.63 50.63C17.43 51.73 16.33 52.53 15.23 52.33C14.24 52.15 13.5 51.24 13.5 50.27C13.5 50.15 13.51 50.04 13.53 49.93C13.73 48.83 14.83 48.03 15.93 48.23ZM29.53 48.23C30.51 48.41 31.26 49.31 31.26 50.28C31.26 50.4 31.25 50.51 31.23 50.63C31.03 51.73 29.93 52.53 28.83 52.33C27.84 52.15 27.09 51.24 27.09 50.27C27.09 50.15 27.1 50.04 27.13 49.93C27.33 48.83 28.33 48.03 29.53 48.23ZM43.03 48.23C44.01 48.41 44.76 49.31 44.76 50.28C44.76 50.4 44.75 50.51 44.73 50.63C44.53 51.73 43.43 52.53 42.33 52.33C41.34 52.15 40.59 51.24 40.59 50.27C40.59 50.15 40.6 50.04 40.63 49.93C40.83 48.83 41.93 48.03 43.03 48.23ZM56.53 48.23C57.51 48.41 58.26 49.31 58.26 50.28C58.26 50.4 58.25 50.51 58.23 50.63C58.03 51.73 56.93 52.53 55.83 52.33C54.84 52.15 54.09 51.24 54.09 50.27C54.09 50.15 54.1 50.04 54.13 49.93C54.33 48.83 55.43 48.03 56.53 48.23ZM70.13 48.23C71.11 48.41 71.86 49.31 71.86 50.28C71.86 50.4 71.85 50.51 71.83 50.63C71.63 51.73 70.53 52.53 69.43 52.33C68.44 52.15 67.7 51.24 67.7 50.27C67.7 50.15 67.71 50.04 67.73 49.93C67.83 48.83 68.93 48.03 70.13 48.23ZM83.63 48.23C84.61 48.41 85.36 49.31 85.36 50.28C85.36 50.4 85.35 50.51 85.33 50.63C85.13 51.73 84.03 52.53 82.93 52.33C81.94 52.15 81.2 51.24 81.2 50.27C81.2 50.15 81.21 50.04 81.23 49.93C81.43 48.83 82.53 48.03 83.63 48.23ZM97.13 48.23C98.11 48.41 98.86 49.31 98.86 50.28C98.86 50.4 98.85 50.51 98.83 50.63C98.63 51.73 97.53 52.53 96.43 52.33C95.44 52.15 94.7 51.24 94.7 50.27C94.7 50.15 94.71 50.04 94.73 49.93C94.93 48.83 96.03 48.03 97.13 48.23ZM112.43 50.33C112.43 51.49 111.49 52.43 110.33 52.43C109.17 52.43 108.23 51.49 108.23 50.33C108.23 49.17 109.17 48.23 110.33 48.23C111.49 48.23 112.43 49.17 112.43 50.33ZM125.93 50.33C125.93 51.49 124.99 52.43 123.83 52.43C122.67 52.43 121.73 51.49 121.73 50.33C121.73 49.17 122.67 48.23 123.83 48.23C124.99 48.23 125.93 49.17 125.93 50.33ZM139.42 50.33C139.42 51.49 138.49 52.43 137.33 52.43C136.17 52.43 135.23 51.49 135.23 50.33C135.23 49.17 136.17 48.23 137.33 48.23C138.49 48.23 139.42 49.17 139.42 50.33ZM2.43 64.33C3.41 64.51 4.16 65.41 4.16 66.38C4.16 66.5 4.15 66.61 4.13 66.73C3.93 67.83 2.83 68.63 1.73 68.43C0.74 68.25 0 67.34 0 66.37C0 66.25 0 66.14 0.03 66.03C0.23 64.83 1.33 64.13 2.43 64.33ZM15.93 64.33C16.91 64.51 17.66 65.41 17.66 66.38C17.66 66.5 17.65 66.61 17.63 66.73C17.43 67.83 16.33 68.63 15.23 68.43C14.24 68.25 13.5 67.34 13.5 66.37C13.5 66.25 13.51 66.14 13.53 66.03C13.73 64.83 14.83 64.13 15.93 64.33ZM29.53 64.33C30.51 64.51 31.26 65.41 31.26 66.38C31.26 66.5 31.25 66.61 31.23 66.73C31.03 67.83 29.93 68.63 28.83 68.43C27.84 68.25 27.09 67.34 27.09 66.37C27.09 66.25 27.1 66.14 27.13 66.03C27.33 64.83 28.33 64.13 29.53 64.33ZM43.03 64.33C44.01 64.51 44.76 65.41 44.76 66.38C44.76 66.5 44.75 66.61 44.73 66.73C44.53 67.83 43.43 68.63 42.33 68.43C41.34 68.25 40.59 67.34 40.59 66.37C40.59 66.25 40.6 66.14 40.63 66.03C40.83 64.83 41.93 64.13 43.03 64.33ZM56.53 64.33C57.51 64.51 58.26 65.41 58.26 66.38C58.26 66.5 58.25 66.61 58.23 66.73C58.03 67.83 56.93 68.63 55.83 68.43C54.84 68.25 54.09 67.34 54.09 66.37C54.09 66.25 54.1 66.14 54.13 66.03C54.33 64.83 55.43 64.13 56.53 64.33ZM70.13 64.33C71.11 64.51 71.86 65.41 71.86 66.38C71.86 66.5 71.85 66.61 71.83 66.73C71.63 67.83 70.53 68.63 69.43 68.43C68.44 68.25 67.7 67.34 67.7 66.37C67.7 66.25 67.71 66.14 67.73 66.03C67.83 64.83 68.93 64.13 70.13 64.33ZM83.63 64.33C84.61 64.51 85.36 65.41 85.36 66.38C85.36 66.5 85.35 66.61 85.33 66.73C85.13 67.83 84.03 68.63 82.93 68.43C81.94 68.25 81.2 67.34 81.2 66.37C81.2 66.25 81.21 66.14 81.23 66.03C81.43 64.83 82.53 64.13 83.63 64.33ZM97.13 64.33C98.11 64.51 98.86 65.41 98.86 66.38C98.86 66.5 98.85 66.61 98.83 66.73C98.63 67.83 97.53 68.63 96.43 68.43C95.44 68.25 94.7 67.34 94.7 66.37C94.7 66.25 94.71 66.14 94.73 66.03C94.93 64.83 96.03 64.13 97.13 64.33ZM110.63 64.33C111.61 64.51 112.36 65.41 112.36 66.38C112.36 66.5 112.35 66.61 112.33 66.73C112.13 67.83 111.03 68.63 109.93 68.43C108.94 68.25 108.2 67.34 108.2 66.37C108.2 66.25 108.21 66.14 108.23 66.03C108.43 64.83 109.53 64.13 110.63 64.33ZM124.23 64.33C125.21 64.51 125.96 65.41 125.96 66.38C125.96 66.5 125.95 66.61 125.93 66.73C125.73 67.83 124.63 68.63 123.53 68.43C122.54 68.25 121.8 67.34 121.8 66.37C121.8 66.25 121.81 66.14 121.83 66.03C122.03 64.83 123.03 64.13 124.23 64.33ZM137.73 64.33C138.71 64.51 139.46 65.41 139.46 66.38C139.46 66.5 139.45 66.61 139.43 66.73C139.23 67.83 138.13 68.63 137.03 68.43C136.04 68.25 135.3 67.34 135.3 66.37C135.3 66.25 135.31 66.14 135.33 66.03C135.53 64.83 136.63 64.13 137.73 64.33Z" fill="url(#paint_linear_76_333_0)" fill-opacity="1.000000" fill-rule="evenodd"/>
</svg>
