<svg width="35.000000" height="33.000000" viewBox="0 0 35 33" fill="none" xmlns="http://www.w3.org/2000/svg" xmlns:xlink="http://www.w3.org/1999/xlink">
	<desc>
			Created with Pixso.
	</desc>
	<defs/>
	<path id="Vector" d="M34.11 25.54C34.11 26.8 33.41 29.23 31.86 30.56C31.54 30.8 31.23 30.67 31.37 30.31C31.82 29.19 32.86 26.59 32.37 25.99C32.03 25.53 30.61 25.57 29.4 25.67C28.85 25.74 28.36 25.78 27.98 25.86C27.63 25.88 27.56 25.57 27.91 25.33C28.37 25 28.87 24.75 29.4 24.59C31.37 23.99 33.64 24.35 33.97 24.73C34.03 24.8 34.11 25.01 34.11 25.54ZM30.82 27.78C30.37 28.13 29.89 28.45 29.4 28.73C25.77 30.95 21.06 32.11 16.98 32.11C10.4 32.11 4.52 29.65 0.06 25.53C-0.33 25.22 -0.01 24.76 0.44 25.01C5.25 27.85 11.2 29.57 17.36 29.57C21.24 29.57 25.42 28.84 29.4 27.26C29.68 27.15 29.99 27.01 30.26 26.91C30.89 26.62 31.44 27.33 30.82 27.78ZM20.26 8.64C20.26 6.83 20.33 5.77 19.74 4.86C19.22 4.1 18.31 3.65 17.05 3.72C15.69 3.8 14.22 4.71 13.85 6.37C13.78 6.75 13.56 7.13 13.1 7.21L8.93 6.67C8.64 6.6 8.18 6.37 8.33 5.77C9.23 0.99 13.25 -0.67 17.06 -0.89L17.95 -0.89C20.04 -0.89 22.72 -0.29 24.44 1.3C26.52 3.27 26.3 5.92 26.3 8.8L26.3 15.61C26.3 17.66 27.12 18.56 27.94 19.63C28.16 20.01 28.24 20.45 27.86 20.76C26.78 21.74 25.69 22.7 24.58 23.63C24.28 23.86 23.74 23.89 23.54 23.71C22.22 22.59 21.9 21.97 21.08 20.83C19.66 22.35 18.47 23.18 17.05 23.63C16.05 23.89 15.03 24.02 14 24.01C10.42 24.01 7.59 21.75 7.59 17.28C7.59 13.72 9.45 11.3 12.21 10.16C14.96 9.01 18.97 8.65 20.26 8.64L20.26 8.64ZM19.44 17.65C20.33 16.14 20.26 14.9 20.26 12.12C19.14 12.12 18.02 12.2 17.06 12.43C15.27 12.96 13.85 14.1 13.85 16.52C13.85 18.41 14.82 19.7 16.46 19.7C16.68 19.7 16.88 19.67 17.05 19.62C18.2 19.3 18.92 18.72 19.44 17.65Z" fill="#4d4d4d" fill-opacity="1.000000" fill-rule="nonzero"/>
</svg>
