<svg width="32.000000" height="37.000000" viewBox="0 0 32 37" fill="none" xmlns="http://www.w3.org/2000/svg" xmlns:xlink="http://www.w3.org/1999/xlink">
	<desc>
			Created with Pixso.
	</desc>
	<defs/>
	<path id="Vector" d="M26.03 34.86C23.97 36.79 21.73 36.49 19.57 35.57C17.29 34.63 15.2 34.59 12.79 35.57C9.77 36.83 8.18 36.47 6.37 34.86C-3.85 24.61 -2.34 9.01 9.27 8.44C12.09 8.58 14.06 9.95 15.72 10.07C18.19 9.58 20.56 8.18 23.2 8.36C26.36 8.6 28.75 9.83 30.32 12.03C23.79 15.83 25.34 24.2 31.33 26.55C30.13 29.6 28.58 32.64 26.01 34.88L26.03 34.86ZM15.51 8.32C15.2 3.78 18.99 0.03 23.35 -0.34C23.95 4.92 18.44 8.83 15.51 8.32Z" fill="#4d4d4d" fill-opacity="1.000000" fill-rule="nonzero"/>
</svg>
