<svg width="36.000000" height="37.000000" viewBox="0 0 36 37" fill="none" xmlns="http://www.w3.org/2000/svg" xmlns:xlink="http://www.w3.org/1999/xlink">
	<desc>
			Created with Pixso.
	</desc>
	<defs/>
	<g opacity="0.700000">
		<path id="Vector" d="M18.29 6.95C20.9 6.91 23.42 7.89 25.3 9.7L30.56 4.44C27.24 1.32 22.84 -0.39 18.29 -0.34C14.89 -0.34 11.56 0.6 8.67 2.39C5.77 4.17 3.43 6.73 1.91 9.76L8.03 14.51C8.74 12.34 10.1 10.44 11.95 9.08C13.79 7.73 16.01 6.98 18.29 6.95Z" fill="#000000" fill-opacity="1.000000" fill-rule="nonzero"/>
	</g>
	<path id="Vector" d="M1.91 9.76C0.62 12.32 -0.04 15.14 -0.04 18C-0.04 20.85 0.62 23.67 1.91 26.23L8.03 21.48C7.27 19.22 7.27 16.77 8.03 14.51L1.91 9.76Z" fill="#000000" fill-opacity="1.000000" fill-rule="nonzero"/>
	<g opacity="0.500000">
		<path id="Vector" d="M24.5 27.29C23.08 28.2 21.47 28.77 19.8 28.97C18.13 29.16 16.43 28.97 14.84 28.41C13.26 27.85 11.82 26.93 10.64 25.73C9.46 24.53 8.56 23.08 8.03 21.48L1.91 26.23C3.43 29.26 5.77 31.82 8.67 33.6C11.56 35.38 14.89 36.33 18.29 36.33C22.75 36.45 27.09 34.86 30.42 31.89L24.5 27.29Z" fill="#000000" fill-opacity="1.000000" fill-rule="nonzero"/>
	</g>
	<g opacity="0.250000">
		<path id="Vector" d="M35.56 14.66L18.29 14.66L18.29 21.75L28.16 21.75C27.95 22.88 27.52 23.94 26.9 24.89C26.27 25.85 25.45 26.66 24.5 27.29L30.42 31.89C32.23 30.15 33.65 28.05 34.59 25.73C35.53 23.41 35.97 20.92 35.89 18.41C35.89 17.15 35.78 15.9 35.56 14.66Z" fill="#000000" fill-opacity="1.000000" fill-rule="nonzero"/>
	</g>
</svg>
