<svg width="37.000000" height="37.000000" viewBox="0 0 37 37" fill="none" xmlns="http://www.w3.org/2000/svg" xmlns:xlink="http://www.w3.org/1999/xlink">
	<desc>
			Created with Pixso.
	</desc>
	<defs/>
	<path id="Vector" d="M6.32 6.09C7.51 7.01 7.95 6.95 10.19 6.81L31.23 5.59C31.68 5.59 31.31 5.16 31.16 5.09L27.66 2.67C26.99 2.17 26.1 1.6 24.39 1.74L4.01 3.17C3.27 3.23 3.12 3.59 3.42 3.88L6.32 6.09ZM7.59 10.8L7.59 32.04C7.59 33.18 8.18 33.61 9.51 33.53L32.64 32.25C33.98 32.18 34.14 31.4 34.14 30.47L34.14 9.37C34.14 8.44 33.76 7.95 32.94 8.02L8.77 9.37C7.88 9.44 7.59 9.87 7.59 10.79L7.59 10.8ZM30.42 11.93C30.57 12.58 30.42 13.21 29.74 13.29L28.63 13.51L28.63 29.18C27.66 29.69 26.77 29.97 26.03 29.97C24.84 29.97 24.54 29.61 23.65 28.55L16.36 17.57L16.36 28.19L18.66 28.69C18.66 28.69 18.66 29.97 16.8 29.97L11.67 30.26C11.52 29.97 11.67 29.26 12.2 29.12L13.53 28.76L13.53 14.72L11.67 14.58C11.52 13.93 11.9 13.01 12.94 12.94L18.44 12.58L26.03 23.7L26.03 13.86L24.1 13.64C23.95 12.86 24.54 12.29 25.28 12.22L30.42 11.93ZM2.3 1.24L23.5 -0.25C26.1 -0.47 26.77 -0.33 28.41 0.81L35.17 5.38C36.29 6.16 36.66 6.38 36.66 7.23L36.66 32.25C36.66 33.82 36.06 34.75 33.99 34.89L9.36 36.32C7.81 36.39 7.06 36.17 6.24 35.18L1.26 28.97C0.37 27.83 0 26.98 0 25.98L0 3.74C0 2.46 0.59 1.39 2.3 1.24L2.3 1.24Z" fill="#4d4d4d" fill-opacity="1.000000" fill-rule="nonzero"/>
</svg>
