<svg width="62.000000" height="49.000000" viewBox="0 0 62 49" fill="none" xmlns="http://www.w3.org/2000/svg" xmlns:xlink="http://www.w3.org/1999/xlink">
	<desc>
			Created with Pixso.
	</desc>
	<defs/>
	<path id="Vector" d="M20.66 24L7.74 24C6.53 24 5.59 22.92 5.86 21.73C6.46 19.12 7.45 16.61 8.8 14.33C10.53 11.39 12.81 8.87 15.5 6.94L18.61 4.69C19.46 4.08 19.69 2.91 19.14 2.02L18.41 0.83C17.8 -0.16 16.48 -0.43 15.53 0.25L12.65 2.33C8.76 5.12 5.57 8.9 3.36 13.33C1.15 17.76 0 22.72 0 27.75L0 43.44C0 44.91 0.54 46.33 1.51 47.37C2.48 48.41 3.79 49 5.16 49L20.66 49C22.03 49 23.35 48.41 24.32 47.37C25.28 46.33 25.83 44.91 25.83 43.44L25.83 29.55C25.83 28.08 25.28 26.66 24.32 25.62C23.35 24.58 22.03 24 20.66 24ZM56.83 24L43.91 24C42.7 24 41.76 22.92 42.03 21.73C42.63 19.12 43.62 16.61 44.96 14.33C46.7 11.39 48.98 8.87 51.66 6.94L54.78 4.69C55.63 4.08 55.87 2.92 55.32 2.02L54.59 0.83C53.99 -0.16 52.66 -0.43 51.72 0.25L48.82 2.33C44.93 5.12 41.74 8.9 39.53 13.33C37.32 17.76 36.16 22.72 36.16 27.75L36.16 43.44C36.16 44.91 36.71 46.33 37.67 47.37C38.64 48.41 39.96 49 41.33 49L56.83 49C58.2 49 59.51 48.41 60.48 47.37C61.45 46.33 62 44.91 62 43.44L62 29.55C62 28.08 61.45 26.66 60.48 25.62C59.51 24.58 58.2 24 56.83 24Z" fill="#00A4F4" fill-opacity="1.000000" fill-rule="evenodd"/>
</svg>
