<svg width="37.000000" height="37.000000" viewBox="0 0 37 37" fill="none" xmlns="http://www.w3.org/2000/svg" xmlns:xlink="http://www.w3.org/1999/xlink">
	<desc>
			Created with Pixso.
	</desc>
	<defs/>
	<path id="Vector" d="M7.6 22.82C7.6 23.84 7.2 24.83 6.47 25.55C5.75 26.27 4.77 26.68 3.74 26.68C2.72 26.68 1.74 26.27 1.01 25.55C0.29 24.83 -0.12 23.84 -0.12 22.82C-0.12 21.8 0.29 20.81 1.01 20.09C1.74 19.37 2.72 18.96 3.74 18.96L7.6 18.96L7.6 22.82ZM9.53 22.82C9.53 21.8 9.94 20.81 10.66 20.09C11.39 19.37 12.37 18.96 13.39 18.96C14.42 18.96 15.4 19.37 16.12 20.09C16.85 20.81 17.25 21.8 17.25 22.82L17.25 32.47C17.25 33.49 16.85 34.47 16.12 35.2C15.4 35.92 14.42 36.33 13.39 36.33C12.37 36.33 11.39 35.92 10.66 35.2C9.94 34.47 9.53 33.49 9.53 32.47L9.53 22.82ZM13.39 7.38C12.37 7.38 11.39 6.97 10.66 6.25C9.94 5.53 9.53 4.54 9.53 3.52C9.53 2.5 9.94 1.52 10.66 0.79C11.39 0.07 12.37 -0.34 13.39 -0.34C14.42 -0.34 15.4 0.07 16.12 0.79C16.85 1.52 17.25 2.5 17.25 3.52L17.25 7.38L13.39 7.38ZM13.39 9.31C14.42 9.31 15.4 9.72 16.12 10.44C16.85 11.17 17.25 12.15 17.25 13.17C17.25 14.19 16.85 15.18 16.12 15.9C15.4 16.62 14.42 17.03 13.39 17.03L3.74 17.03C2.72 17.03 1.74 16.62 1.01 15.9C0.29 15.18 -0.12 14.19 -0.12 13.17C-0.12 12.15 0.29 11.17 1.01 10.44C1.74 9.72 2.72 9.31 3.74 9.31L13.39 9.31ZM28.83 13.17C28.83 12.15 29.24 11.17 29.96 10.44C30.69 9.72 31.67 9.31 32.69 9.31C33.71 9.31 34.7 9.72 35.42 10.44C36.14 11.17 36.55 12.15 36.55 13.17C36.55 14.19 36.14 15.18 35.42 15.9C34.7 16.62 33.71 17.03 32.69 17.03L28.83 17.03L28.83 13.17ZM26.9 13.17C26.9 14.19 26.49 15.18 25.77 15.9C25.05 16.62 24.07 17.03 23.04 17.03C22.02 17.03 21.04 16.62 20.31 15.9C19.59 15.18 19.18 14.19 19.18 13.17L19.18 3.52C19.18 2.5 19.59 1.52 20.31 0.79C21.04 0.07 22.02 -0.34 23.04 -0.34C24.07 -0.34 25.05 0.07 25.77 0.79C26.49 1.52 26.9 2.5 26.9 3.52L26.9 13.17ZM23.04 28.61C24.07 28.61 25.05 29.02 25.77 29.74C26.49 30.46 26.9 31.45 26.9 32.47C26.9 33.49 26.49 34.47 25.77 35.2C25.05 35.92 24.07 36.33 23.04 36.33C22.02 36.33 21.04 35.92 20.31 35.2C19.59 34.47 19.18 33.49 19.18 32.47L19.18 28.61L23.04 28.61ZM23.04 26.68C22.02 26.68 21.04 26.27 20.31 25.55C19.59 24.83 19.18 23.84 19.18 22.82C19.18 21.8 19.59 20.81 20.31 20.09C21.04 19.37 22.02 18.96 23.04 18.96L32.69 18.96C33.71 18.96 34.7 19.37 35.42 20.09C36.14 20.81 36.55 21.8 36.55 22.82C36.55 23.84 36.14 24.83 35.42 25.55C34.7 26.27 33.71 26.68 32.69 26.68L23.04 26.68Z" fill="#4d4d4d" fill-opacity="1.000000" fill-rule="nonzero"/>
</svg>
