<svg width="37.000000" height="37.000000" viewBox="0 0 37 37" fill="none" xmlns="http://www.w3.org/2000/svg" xmlns:xlink="http://www.w3.org/1999/xlink">
	<desc>
			Created with Pixso.
	</desc>
	<defs/>
	<path id="Vector" d="M28.59 15.98C22.72 12.5 12.91 12.13 7.32 13.87C6.41 14.15 5.49 13.6 5.21 12.77C4.94 11.85 5.49 10.94 6.31 10.66C12.82 8.74 23.55 9.1 30.33 13.14C31.16 13.6 31.43 14.7 30.97 15.52C30.51 16.16 29.41 16.44 28.59 15.98ZM28.41 21.11C27.95 21.75 27.12 22.03 26.48 21.57C21.53 18.54 14.01 17.63 8.24 19.46C7.51 19.65 6.68 19.28 6.5 18.54C6.31 17.81 6.68 16.99 7.41 16.8C14.11 14.79 22.36 15.8 28.04 19.28C28.59 19.55 28.86 20.47 28.41 21.11ZM26.21 26.15C25.84 26.7 25.2 26.89 24.65 26.52C20.34 23.86 14.93 23.31 8.51 24.78C7.87 24.96 7.32 24.5 7.14 23.95C6.96 23.31 7.41 22.76 7.96 22.58C14.93 21.02 20.98 21.66 25.75 24.6C26.39 24.87 26.48 25.6 26.21 26.15ZM17.77 -0.34C15.37 -0.34 12.98 0.14 10.76 1.06C8.53 1.98 6.51 3.33 4.81 5.03C1.37 8.47 -0.56 13.13 -0.56 18C-0.56 22.86 1.37 27.52 4.81 30.96C6.51 32.66 8.53 34.01 10.76 34.93C12.98 35.85 15.37 36.33 17.77 36.33C22.64 36.33 27.3 34.4 30.74 30.96C34.17 27.52 36.11 22.86 36.11 18C36.11 15.59 35.63 13.2 34.71 10.98C33.79 8.75 32.44 6.73 30.74 5.03C29.03 3.33 27.01 1.98 24.79 1.06C22.56 0.14 20.18 -0.34 17.77 -0.34Z" fill="#4d4d4d" fill-opacity="1.000000" fill-rule="nonzero"/>
</svg>
