<svg width="116.000000" height="59.000000" viewBox="0 0 116 59" fill="none" xmlns="http://www.w3.org/2000/svg" xmlns:xlink="http://www.w3.org/1999/xlink">
	<desc>
			Created with Pixso.
	</desc>
	<defs/>
	<g opacity="0.300000">
		<path id="Vector" d="M36.19 0C34.89 0 33.79 1.1 33.79 2.39C33.79 3.7 34.89 4.79 36.19 4.79C37.49 4.79 38.59 3.7 38.59 2.39C38.59 1.1 37.49 0 36.19 0Z" fill="#00A4F4" fill-opacity="1.000000" fill-rule="nonzero"/>
		<path id="Vector" d="M25.1 0C23.8 0 22.7 1.1 22.7 2.39C22.7 3.7 23.8 4.79 25.1 4.79C26.4 4.79 27.5 3.7 27.5 2.39C27.6 1.1 26.5 0 25.1 0Z" fill="#00A4F4" fill-opacity="1.000000" fill-rule="nonzero"/>
		<path id="Vector" d="M14.1 0C12.8 0 11.7 1.1 11.7 2.39C11.7 3.7 12.8 4.79 14.1 4.79C15.4 4.79 16.5 3.7 16.5 2.39C16.5 1.1 15.4 0 14.1 0Z" fill="#00A4F4" fill-opacity="1.000000" fill-rule="nonzero"/>
		<path id="Vector" d="M36.19 11.5C34.89 11.5 33.79 12.6 33.79 13.89C33.79 15.2 34.89 16.29 36.19 16.29C37.49 16.29 38.59 15.2 38.59 13.89C38.59 12.6 37.49 11.5 36.19 11.5Z" fill="#00A4F4" fill-opacity="1.000000" fill-rule="nonzero"/>
		<path id="Vector" d="M25.1 11.5C23.8 11.5 22.7 12.6 22.7 13.89C22.7 15.2 23.8 16.29 25.1 16.29C26.4 16.29 27.5 15.2 27.5 13.89C27.5 12.6 26.5 11.5 25.1 11.5Z" fill="#00A4F4" fill-opacity="1.000000" fill-rule="nonzero"/>
		<path id="Vector" d="M14.1 11.5C12.8 11.5 11.7 12.6 11.7 13.89C11.7 15.2 12.8 16.29 14.1 16.29C15.4 16.29 16.5 15.2 16.5 13.89C16.5 12.6 15.4 11.5 14.1 11.5Z" fill="#00A4F4" fill-opacity="1.000000" fill-rule="nonzero"/>
		<path id="Vector" d="M38.59 25.39C38.59 24.07 37.52 23 36.19 23C34.87 23 33.79 24.07 33.79 25.39C33.79 26.72 34.87 27.79 36.19 27.79C37.52 27.79 38.59 26.72 38.59 25.39Z" fill="#00A4F4" fill-opacity="1.000000" fill-rule="nonzero"/>
		<path id="Vector" d="M27.5 25.39C27.5 24.07 26.42 23 25.1 23C23.77 23 22.7 24.07 22.7 25.39C22.7 26.72 23.77 27.79 25.1 27.79C26.42 27.79 27.5 26.72 27.5 25.39Z" fill="#00A4F4" fill-opacity="1.000000" fill-rule="nonzero"/>
		<path id="Vector" d="M16.5 25.39C16.5 24.07 15.42 23 14.1 23C12.77 23 11.7 24.07 11.7 25.39C11.7 26.72 12.77 27.79 14.1 27.79C15.42 27.79 16.5 26.72 16.5 25.39Z" fill="#00A4F4" fill-opacity="1.000000" fill-rule="nonzero"/>
		<path id="Vector" d="M36.19 34.4C34.89 34.4 33.79 35.5 33.79 36.8C33.79 38.1 34.89 39.2 36.19 39.2C37.49 39.2 38.59 38.1 38.59 36.8C38.59 35.5 37.49 34.4 36.19 34.4Z" fill="#00A4F4" fill-opacity="1.000000" fill-rule="nonzero"/>
		<path id="Vector" d="M25.1 34.4C23.8 34.4 22.7 35.5 22.7 36.8C22.7 38.1 23.8 39.2 25.1 39.2C26.4 39.2 27.5 38.1 27.5 36.8C27.5 35.5 26.5 34.4 25.1 34.4Z" fill="#00A4F4" fill-opacity="1.000000" fill-rule="nonzero"/>
		<path id="Vector" d="M14.1 34.4C12.8 34.4 11.7 35.5 11.7 36.8C11.7 38.1 12.8 39.2 14.1 39.2C15.4 39.2 16.5 38.1 16.5 36.8C16.5 35.5 15.4 34.4 14.1 34.4Z" fill="#00A4F4" fill-opacity="1.000000" fill-rule="nonzero"/>
		<path id="Vector" d="M36.19 45.9C34.89 45.9 33.79 47 33.79 48.3C33.79 49.6 34.89 50.7 36.19 50.7C37.49 50.7 38.59 49.6 38.59 48.3C38.59 47 37.49 45.9 36.19 45.9Z" fill="#00A4F4" fill-opacity="1.000000" fill-rule="nonzero"/>
		<path id="Vector" d="M25.1 45.9C23.8 45.9 22.7 47 22.7 48.3C22.7 49.6 23.8 50.7 25.1 50.7C26.4 50.7 27.5 49.6 27.5 48.3C27.6 47 26.5 45.9 25.1 45.9Z" fill="#00A4F4" fill-opacity="1.000000" fill-rule="nonzero"/>
		<path id="Vector" d="M14.1 45.9C12.8 45.9 11.7 47 11.7 48.3C11.7 49.6 12.8 50.7 14.1 50.7C15.4 50.7 16.5 49.6 16.5 48.3C16.5 47 15.4 45.9 14.1 45.9Z" fill="#00A4F4" fill-opacity="1.000000" fill-rule="nonzero"/>
		<path id="Vector" d="M113.6 4.9C114.9 4.9 116 3.8 116 2.5C116 1.2 114.9 0.1 113.6 0.1C112.3 0.1 111.2 1.2 111.2 2.5C111.2 3.8 112.2 4.9 113.6 4.9Z" fill="#00A4F4" fill-opacity="1.000000" fill-rule="nonzero"/>
		<path id="Vector" d="M102.5 0C101.2 0 100.1 1.1 100.1 2.39C100.1 3.7 101.2 4.79 102.5 4.79C103.8 4.79 104.9 3.7 104.9 2.39C104.9 1.1 103.9 0 102.5 0Z" fill="#00A4F4" fill-opacity="1.000000" fill-rule="nonzero"/>
		<path id="Vector" d="M91.5 0C90.2 0 89.1 1.1 89.1 2.39C89.1 3.7 90.2 4.79 91.5 4.79C92.8 4.79 93.9 3.7 93.9 2.39C93.9 1.1 92.8 0 91.5 0Z" fill="#00A4F4" fill-opacity="1.000000" fill-rule="nonzero"/>
		<path id="Vector" d="M80.4 0C79.1 0 78 1.1 78 2.39C78 3.7 79.1 4.79 80.4 4.79C81.69 4.79 82.8 3.7 82.8 2.39C82.8 1.1 81.8 0 80.4 0Z" fill="#00A4F4" fill-opacity="1.000000" fill-rule="nonzero"/>
		<path id="Vector" d="M69.4 0C68.1 0 67 1.1 67 2.39C67 3.7 68.1 4.79 69.4 4.79C70.69 4.79 71.8 3.7 71.8 2.39C71.8 1.1 70.69 0 69.4 0Z" fill="#00A4F4" fill-opacity="1.000000" fill-rule="nonzero"/>
		<path id="Vector" d="M58.3 0C57 0 55.9 1.1 55.9 2.39C55.9 3.7 57 4.79 58.3 4.79C59.6 4.79 60.7 3.7 60.7 2.39C60.7 1.1 59.6 0 58.3 0Z" fill="#00A4F4" fill-opacity="1.000000" fill-rule="nonzero"/>
		<path id="Vector" d="M47.19 0C45.89 0 44.79 1.1 44.79 2.39C44.79 3.7 45.89 4.79 47.19 4.79C48.49 4.79 49.59 3.7 49.59 2.39C49.69 1.1 48.59 0 47.19 0Z" fill="#00A4F4" fill-opacity="1.000000" fill-rule="nonzero"/>
		<path id="Vector" d="M113.6 11.5C112.3 11.5 111.2 12.6 111.2 13.89C111.2 15.2 112.3 16.29 113.6 16.29C114.9 16.29 116 15.2 116 13.89C116 12.6 114.9 11.5 113.6 11.5Z" fill="#00A4F4" fill-opacity="1.000000" fill-rule="nonzero"/>
		<path id="Vector" d="M102.5 11.5C101.2 11.5 100.1 12.6 100.1 13.89C100.1 15.2 101.2 16.29 102.5 16.29C103.8 16.29 104.9 15.2 104.9 13.89C104.9 12.6 103.9 11.5 102.5 11.5Z" fill="#00A4F4" fill-opacity="1.000000" fill-rule="nonzero"/>
		<path id="Vector" d="M91.5 11.5C90.2 11.5 89.1 12.6 89.1 13.89C89.1 15.2 90.2 16.29 91.5 16.29C92.8 16.29 93.9 15.2 93.9 13.89C93.9 12.6 92.8 11.5 91.5 11.5Z" fill="#00A4F4" fill-opacity="1.000000" fill-rule="nonzero"/>
		<path id="Vector" d="M80.4 11.5C79.1 11.5 78 12.6 78 13.89C78 15.2 79.1 16.29 80.4 16.29C81.69 16.29 82.8 15.2 82.8 13.89C82.8 12.6 81.8 11.5 80.4 11.5Z" fill="#00A4F4" fill-opacity="1.000000" fill-rule="nonzero"/>
		<path id="Vector" d="M69.4 11.5C68.1 11.5 67 12.6 67 13.89C67 15.2 68.1 16.29 69.4 16.29C70.69 16.29 71.8 15.2 71.8 13.89C71.8 12.6 70.69 11.5 69.4 11.5Z" fill="#00A4F4" fill-opacity="1.000000" fill-rule="nonzero"/>
		<path id="Vector" d="M58.3 11.5C57 11.5 55.9 12.6 55.9 13.89C55.9 15.2 57 16.29 58.3 16.29C59.6 16.29 60.7 15.2 60.7 13.89C60.7 12.6 59.6 11.5 58.3 11.5Z" fill="#00A4F4" fill-opacity="1.000000" fill-rule="nonzero"/>
		<path id="Vector" d="M47.19 11.5C45.89 11.5 44.79 12.6 44.79 13.89C44.79 15.2 45.89 16.29 47.19 16.29C48.49 16.29 49.59 15.2 49.59 13.89C49.59 12.6 48.59 11.5 47.19 11.5Z" fill="#00A4F4" fill-opacity="1.000000" fill-rule="nonzero"/>
		<path id="Vector" d="M113.6 23C112.3 23 111.2 24.1 111.2 25.39C111.2 26.7 112.3 27.79 113.6 27.79C114.9 27.79 116 26.7 116 25.39C116 24.1 114.9 23 113.6 23Z" fill="#00A4F4" fill-opacity="1.000000" fill-rule="nonzero"/>
		<path id="Vector" d="M102.5 23C101.2 23 100.1 24.1 100.1 25.39C100.1 26.7 101.2 27.79 102.5 27.79C103.8 27.79 104.9 26.7 104.9 25.39C104.9 24.1 103.9 23 102.5 23Z" fill="#00A4F4" fill-opacity="1.000000" fill-rule="nonzero"/>
		<path id="Vector" d="M91.5 23C90.2 23 89.1 24.1 89.1 25.39C89.1 26.7 90.2 27.79 91.5 27.79C92.8 27.79 93.9 26.7 93.9 25.39C93.9 24.1 92.8 23 91.5 23Z" fill="#00A4F4" fill-opacity="1.000000" fill-rule="nonzero"/>
		<path id="Vector" d="M80.4 23C79.1 23 78 24.1 78 25.39C78 26.7 79.1 27.79 80.4 27.79C81.69 27.79 82.8 26.7 82.8 25.39C82.8 24.1 81.8 23 80.4 23Z" fill="#00A4F4" fill-opacity="1.000000" fill-rule="nonzero"/>
		<path id="Vector" d="M71.8 25.39C71.8 24.07 70.72 23 69.4 23C68.07 23 67 24.07 67 25.39C67 26.72 68.07 27.79 69.4 27.79C70.72 27.79 71.8 26.72 71.8 25.39Z" fill="#00A4F4" fill-opacity="1.000000" fill-rule="nonzero"/>
		<path id="Vector" d="M58.3 23C57 23 55.9 24.1 55.9 25.39C55.9 26.7 57 27.79 58.3 27.79C59.6 27.79 60.7 26.7 60.7 25.39C60.7 24.1 59.6 23 58.3 23Z" fill="#00A4F4" fill-opacity="1.000000" fill-rule="nonzero"/>
		<path id="Vector" d="M47.19 23C45.89 23 44.79 24.1 44.79 25.39C44.79 26.7 45.89 27.79 47.19 27.79C48.49 27.79 49.59 26.7 49.59 25.39C49.69 24.1 48.59 23 47.19 23Z" fill="#00A4F4" fill-opacity="1.000000" fill-rule="nonzero"/>
		<path id="Vector" d="M113.6 34.4C112.3 34.4 111.2 35.5 111.2 36.8C111.2 38.1 112.3 39.2 113.6 39.2C114.9 39.2 116 38.1 116 36.8C116 35.5 114.9 34.4 113.6 34.4Z" fill="#00A4F4" fill-opacity="1.000000" fill-rule="nonzero"/>
		<path id="Vector" d="M102.5 34.4C101.2 34.4 100.1 35.5 100.1 36.8C100.1 38.1 101.2 39.2 102.5 39.2C103.8 39.2 104.9 38.1 104.9 36.8C104.9 35.5 103.9 34.4 102.5 34.4Z" fill="#00A4F4" fill-opacity="1.000000" fill-rule="nonzero"/>
		<path id="Vector" d="M91.5 34.4C90.2 34.4 89.1 35.5 89.1 36.8C89.1 38.1 90.2 39.2 91.5 39.2C92.8 39.2 93.9 38.1 93.9 36.8C93.9 35.5 92.8 34.4 91.5 34.4Z" fill="#00A4F4" fill-opacity="1.000000" fill-rule="nonzero"/>
		<path id="Vector" d="M80.4 34.4C79.1 34.4 78 35.5 78 36.8C78 38.1 79.1 39.2 80.4 39.2C81.69 39.2 82.8 38.1 82.8 36.8C82.8 35.5 81.8 34.4 80.4 34.4Z" fill="#00A4F4" fill-opacity="1.000000" fill-rule="nonzero"/>
		<path id="Vector" d="M69.4 34.4C68.1 34.4 67 35.5 67 36.8C67 38.1 68.1 39.2 69.4 39.2C70.69 39.2 71.8 38.1 71.8 36.8C71.8 35.5 70.69 34.4 69.4 34.4Z" fill="#00A4F4" fill-opacity="1.000000" fill-rule="nonzero"/>
		<path id="Vector" d="M58.3 34.4C57 34.4 55.9 35.5 55.9 36.8C55.9 38.1 57 39.2 58.3 39.2C59.6 39.2 60.7 38.1 60.7 36.8C60.7 35.5 59.6 34.4 58.3 34.4Z" fill="#00A4F4" fill-opacity="1.000000" fill-rule="nonzero"/>
		<path id="Vector" d="M47.19 34.4C45.89 34.4 44.79 35.5 44.79 36.8C44.79 38.1 45.89 39.2 47.19 39.2C48.49 39.2 49.59 38.1 49.59 36.8C49.59 35.5 48.59 34.4 47.19 34.4Z" fill="#00A4F4" fill-opacity="1.000000" fill-rule="nonzero"/>
		<path id="Vector" d="M113.6 45.9C112.3 45.9 111.2 47 111.2 48.3C111.2 49.6 112.3 50.7 113.6 50.7C114.9 50.7 116 49.6 116 48.3C116 47 114.9 45.9 113.6 45.9Z" fill="#00A4F4" fill-opacity="1.000000" fill-rule="nonzero"/>
		<path id="Vector" d="M102.5 45.9C101.2 45.9 100.1 47 100.1 48.3C100.1 49.6 101.2 50.7 102.5 50.7C103.8 50.7 104.9 49.6 104.9 48.3C104.9 47 103.9 45.9 102.5 45.9Z" fill="#00A4F4" fill-opacity="1.000000" fill-rule="nonzero"/>
		<path id="Vector" d="M91.5 45.9C90.2 45.9 89.1 47 89.1 48.3C89.1 49.6 90.2 50.7 91.5 50.7C92.8 50.7 93.9 49.6 93.9 48.3C93.9 47 92.8 45.9 91.5 45.9Z" fill="#00A4F4" fill-opacity="1.000000" fill-rule="nonzero"/>
		<path id="Vector" d="M80.4 45.9C79.1 45.9 78 47 78 48.3C78 49.6 79.1 50.7 80.4 50.7C81.69 50.7 82.8 49.6 82.8 48.3C82.8 47 81.8 45.9 80.4 45.9Z" fill="#00A4F4" fill-opacity="1.000000" fill-rule="nonzero"/>
		<path id="Vector" d="M69.4 45.9C68.1 45.9 67 47 67 48.3C67 49.6 68.1 50.7 69.4 50.7C70.69 50.7 71.8 49.6 71.8 48.3C71.8 47 70.69 45.9 69.4 45.9Z" fill="#00A4F4" fill-opacity="1.000000" fill-rule="nonzero"/>
		<path id="Vector" d="M58.3 45.9C57 45.9 55.9 47 55.9 48.3C55.9 49.6 57 50.7 58.3 50.7C59.6 50.7 60.7 49.6 60.7 48.3C60.7 47 59.6 45.9 58.3 45.9Z" fill="#00A4F4" fill-opacity="1.000000" fill-rule="nonzero"/>
		<path id="Vector" d="M47.19 45.9C45.89 45.9 44.79 47 44.79 48.3C44.79 49.6 45.89 50.7 47.19 50.7C48.49 50.7 49.59 49.6 49.59 48.3C49.69 47 48.59 45.9 47.19 45.9Z" fill="#00A4F4" fill-opacity="1.000000" fill-rule="nonzero"/>
		<path id="Vector" d="M24.49 8.4C23.19 8.4 22.09 9.5 22.09 10.8C22.09 12.1 23.19 13.2 24.49 13.2C25.79 13.2 26.89 12.1 26.89 10.8C26.89 9.5 25.79 8.4 24.49 8.4Z" fill="#0069AB" fill-opacity="1.000000" fill-rule="nonzero"/>
		<path id="Vector" d="M13.4 8.4C12.1 8.4 11 9.5 11 10.8C11 12.1 12.1 13.2 13.4 13.2C14.7 13.2 15.8 12.1 15.8 10.8C15.8 9.5 14.8 8.4 13.4 8.4Z" fill="#0069AB" fill-opacity="1.000000" fill-rule="nonzero"/>
		<path id="Vector" d="M2.39 8.4C1.09 8.4 0 9.5 0 10.8C0 12.1 1.09 13.2 2.39 13.2C3.69 13.2 4.79 12.1 4.79 10.8C4.79 9.5 3.69 8.4 2.39 8.4Z" fill="#0069AB" fill-opacity="1.000000" fill-rule="nonzero"/>
		<path id="Vector" d="M24.49 19.9C23.19 19.9 22.09 21 22.09 22.3C22.09 23.6 23.19 24.7 24.49 24.7C25.79 24.7 26.89 23.6 26.89 22.3C26.89 21 25.79 19.9 24.49 19.9Z" fill="#0069AB" fill-opacity="1.000000" fill-rule="nonzero"/>
		<path id="Vector" d="M13.4 19.9C12.1 19.9 11 21 11 22.3C11 23.6 12.1 24.7 13.4 24.7C14.7 24.7 15.8 23.6 15.8 22.3C15.8 21 14.8 19.9 13.4 19.9Z" fill="#0069AB" fill-opacity="1.000000" fill-rule="nonzero"/>
		<path id="Vector" d="M2.39 19.9C1.09 19.9 0 21 0 22.3C0 23.6 1.09 24.7 2.39 24.7C3.69 24.7 4.79 23.6 4.79 22.3C4.79 21 3.69 19.9 2.39 19.9Z" fill="#0069AB" fill-opacity="1.000000" fill-rule="nonzero"/>
		<path id="Vector" d="M24.49 31.3C23.19 31.3 22.09 32.4 22.09 33.7C22.09 35 23.19 36.1 24.49 36.1C25.79 36.1 26.89 35 26.89 33.7C26.89 32.4 25.79 31.3 24.49 31.3Z" fill="#0069AB" fill-opacity="1.000000" fill-rule="nonzero"/>
		<path id="Vector" d="M13.4 31.3C12.1 31.3 11 32.4 11 33.7C11 35 12.1 36.1 13.4 36.1C14.7 36.1 15.8 35 15.8 33.7C15.8 32.4 14.8 31.3 13.4 31.3Z" fill="#0069AB" fill-opacity="1.000000" fill-rule="nonzero"/>
		<path id="Vector" d="M2.39 31.3C1.09 31.3 0 32.4 0 33.7C0 35 1.09 36.1 2.39 36.1C3.69 36.1 4.79 35 4.79 33.7C4.79 32.4 3.69 31.3 2.39 31.3Z" fill="#0069AB" fill-opacity="1.000000" fill-rule="nonzero"/>
		<path id="Vector" d="M24.49 42.8C23.19 42.8 22.09 43.9 22.09 45.2C22.09 46.5 23.19 47.6 24.49 47.6C25.79 47.6 26.89 46.5 26.89 45.2C26.89 43.9 25.79 42.8 24.49 42.8Z" fill="#0069AB" fill-opacity="1.000000" fill-rule="nonzero"/>
		<path id="Vector" d="M13.4 42.8C12.1 42.8 11 43.9 11 45.2C11 46.5 12.1 47.6 13.4 47.6C14.7 47.6 15.8 46.5 15.8 45.2C15.8 43.9 14.8 42.8 13.4 42.8Z" fill="#0069AB" fill-opacity="1.000000" fill-rule="nonzero"/>
		<path id="Vector" d="M2.39 42.8C1.09 42.8 0 43.9 0 45.2C0 46.5 1.09 47.6 2.39 47.6C3.69 47.6 4.79 46.5 4.79 45.2C4.79 43.9 3.69 42.8 2.39 42.8Z" fill="#0069AB" fill-opacity="1.000000" fill-rule="nonzero"/>
		<path id="Vector" d="M24.49 54.2C23.19 54.2 22.09 55.3 22.09 56.6C22.09 57.9 23.19 59 24.49 59C25.79 59 26.89 57.9 26.89 56.6C26.89 55.3 25.79 54.2 24.49 54.2Z" fill="#0069AB" fill-opacity="1.000000" fill-rule="nonzero"/>
		<path id="Vector" d="M13.4 54.2C12.1 54.2 11 55.3 11 56.6C11 57.9 12.1 59 13.4 59C14.7 59 15.8 57.9 15.8 56.6C15.8 55.3 14.8 54.2 13.4 54.2Z" fill="#0069AB" fill-opacity="1.000000" fill-rule="nonzero"/>
		<path id="Vector" d="M2.39 54.2C1.09 54.2 0 55.3 0 56.6C0 57.9 1.09 59 2.39 59C3.69 59 4.79 57.9 4.79 56.6C4.79 55.3 3.69 54.2 2.39 54.2Z" fill="#0069AB" fill-opacity="1.000000" fill-rule="nonzero"/>
		<path id="Vector" d="M101.9 13.29C103.2 13.29 104.3 12.2 104.3 10.89C104.3 9.6 103.2 8.5 101.9 8.5C100.6 8.5 99.5 9.6 99.5 10.89C99.5 12.2 100.5 13.29 101.9 13.29Z" fill="#0069AB" fill-opacity="1.000000" fill-rule="nonzero"/>
		<path id="Vector" d="M93.2 10.8C93.2 9.47 92.12 8.4 90.8 8.4C89.47 8.4 88.4 9.47 88.4 10.8C88.4 12.12 89.47 13.2 90.8 13.2C92.12 13.2 93.2 12.12 93.2 10.8Z" fill="#0069AB" fill-opacity="1.000000" fill-rule="nonzero"/>
		<path id="Vector" d="M79.8 8.4C78.5 8.4 77.4 9.5 77.4 10.8C77.4 12.1 78.5 13.2 79.8 13.2C81.1 13.2 82.2 12.1 82.2 10.8C82.2 9.5 81.1 8.4 79.8 8.4Z" fill="#0069AB" fill-opacity="1.000000" fill-rule="nonzero"/>
		<path id="Vector" d="M71.09 10.8C71.09 9.47 70.02 8.4 68.69 8.4C67.37 8.4 66.29 9.47 66.29 10.8C66.29 12.12 67.37 13.2 68.69 13.2C70.02 13.2 71.09 12.12 71.09 10.8Z" fill="#0069AB" fill-opacity="1.000000" fill-rule="nonzero"/>
		<path id="Vector" d="M60 10.8C60 9.47 58.92 8.4 57.6 8.4C56.27 8.4 55.2 9.47 55.2 10.8C55.2 12.12 56.27 13.2 57.6 13.2C58.92 13.2 60 12.12 60 10.8Z" fill="#0069AB" fill-opacity="1.000000" fill-rule="nonzero"/>
		<path id="Vector" d="M46.6 8.4C45.3 8.4 44.2 9.5 44.2 10.8C44.2 12.1 45.3 13.2 46.6 13.2C47.9 13.2 49 12.1 49 10.8C49 9.5 47.9 8.4 46.6 8.4Z" fill="#0069AB" fill-opacity="1.000000" fill-rule="nonzero"/>
		<path id="Vector" d="M37.89 10.8C37.89 9.47 36.82 8.4 35.49 8.4C34.17 8.4 33.09 9.47 33.09 10.8C33.09 12.12 34.17 13.2 35.49 13.2C36.82 13.2 37.89 12.12 37.89 10.8Z" fill="#0069AB" fill-opacity="1.000000" fill-rule="nonzero"/>
		<path id="Vector" d="M101.9 19.9C100.6 19.9 99.5 21 99.5 22.3C99.5 23.6 100.6 24.7 101.9 24.7C103.2 24.7 104.3 23.6 104.3 22.3C104.3 21 103.2 19.9 101.9 19.9Z" fill="#0069AB" fill-opacity="1.000000" fill-rule="nonzero"/>
		<path id="Vector" d="M93.2 22.3C93.2 20.97 92.12 19.9 90.8 19.9C89.47 19.9 88.4 20.97 88.4 22.3C88.4 23.62 89.47 24.7 90.8 24.7C92.12 24.7 93.2 23.62 93.2 22.3Z" fill="#0069AB" fill-opacity="1.000000" fill-rule="nonzero"/>
		<path id="Vector" d="M79.8 19.9C78.5 19.9 77.4 21 77.4 22.3C77.4 23.6 78.5 24.7 79.8 24.7C81.1 24.7 82.2 23.6 82.2 22.3C82.2 21 81.1 19.9 79.8 19.9Z" fill="#0069AB" fill-opacity="1.000000" fill-rule="nonzero"/>
		<path id="Vector" d="M71.09 22.3C71.09 20.97 70.02 19.9 68.69 19.9C67.37 19.9 66.29 20.97 66.29 22.3C66.29 23.62 67.37 24.7 68.69 24.7C70.02 24.7 71.09 23.62 71.09 22.3Z" fill="#0069AB" fill-opacity="1.000000" fill-rule="nonzero"/>
		<path id="Vector" d="M60 22.3C60 20.97 58.92 19.9 57.6 19.9C56.27 19.9 55.2 20.97 55.2 22.3C55.2 23.62 56.27 24.7 57.6 24.7C58.92 24.7 60 23.62 60 22.3Z" fill="#0069AB" fill-opacity="1.000000" fill-rule="nonzero"/>
		<path id="Vector" d="M46.6 19.9C45.3 19.9 44.2 21 44.2 22.3C44.2 23.6 45.3 24.7 46.6 24.7C47.9 24.7 49 23.6 49 22.3C49 21 47.9 19.9 46.6 19.9Z" fill="#0069AB" fill-opacity="1.000000" fill-rule="nonzero"/>
		<path id="Vector" d="M37.89 22.3C37.89 20.97 36.82 19.9 35.49 19.9C34.17 19.9 33.09 20.97 33.09 22.3C33.09 23.62 34.17 24.7 35.49 24.7C36.82 24.7 37.89 23.62 37.89 22.3Z" fill="#0069AB" fill-opacity="1.000000" fill-rule="nonzero"/>
		<path id="Vector" d="M101.9 31.3C100.6 31.3 99.5 32.4 99.5 33.7C99.5 35 100.6 36.1 101.9 36.1C103.2 36.1 104.3 35 104.3 33.7C104.3 32.4 103.2 31.3 101.9 31.3Z" fill="#0069AB" fill-opacity="1.000000" fill-rule="nonzero"/>
		<path id="Vector" d="M90.8 31.3C89.5 31.3 88.4 32.4 88.4 33.7C88.4 35 89.5 36.1 90.8 36.1C92.1 36.1 93.2 35 93.2 33.7C93.2 32.4 92.2 31.3 90.8 31.3Z" fill="#0069AB" fill-opacity="1.000000" fill-rule="nonzero"/>
		<path id="Vector" d="M79.8 31.3C78.5 31.3 77.4 32.4 77.4 33.7C77.4 35 78.5 36.1 79.8 36.1C81.1 36.1 82.2 35 82.2 33.7C82.2 32.4 81.1 31.3 79.8 31.3Z" fill="#0069AB" fill-opacity="1.000000" fill-rule="nonzero"/>
		<path id="Vector" d="M68.69 31.3C67.39 31.3 66.29 32.4 66.29 33.7C66.29 35 67.39 36.1 68.69 36.1C69.99 36.1 71.09 35 71.09 33.7C71.09 32.4 69.99 31.3 68.69 31.3Z" fill="#0069AB" fill-opacity="1.000000" fill-rule="nonzero"/>
		<path id="Vector" d="M57.6 31.3C56.3 31.3 55.2 32.4 55.2 33.7C55.2 35 56.3 36.1 57.6 36.1C58.9 36.1 60 35 60 33.7C60.1 32.4 59 31.3 57.6 31.3Z" fill="#0069AB" fill-opacity="1.000000" fill-rule="nonzero"/>
		<path id="Vector" d="M46.6 31.3C45.3 31.3 44.2 32.4 44.2 33.7C44.2 35 45.3 36.1 46.6 36.1C47.9 36.1 49 35 49 33.7C49 32.4 47.9 31.3 46.6 31.3Z" fill="#0069AB" fill-opacity="1.000000" fill-rule="nonzero"/>
		<path id="Vector" d="M35.49 31.3C34.19 31.3 33.09 32.4 33.09 33.7C33.09 35 34.19 36.1 35.49 36.1C36.79 36.1 37.89 35 37.89 33.7C37.99 32.4 36.89 31.3 35.49 31.3Z" fill="#0069AB" fill-opacity="1.000000" fill-rule="nonzero"/>
		<path id="Vector" d="M101.9 42.8C100.6 42.8 99.5 43.9 99.5 45.2C99.5 46.5 100.6 47.6 101.9 47.6C103.2 47.6 104.3 46.5 104.3 45.2C104.3 43.9 103.2 42.8 101.9 42.8Z" fill="#0069AB" fill-opacity="1.000000" fill-rule="nonzero"/>
		<path id="Vector" d="M90.8 42.8C89.5 42.8 88.4 43.9 88.4 45.2C88.4 46.5 89.5 47.6 90.8 47.6C92.1 47.6 93.2 46.5 93.2 45.2C93.2 43.9 92.2 42.8 90.8 42.8Z" fill="#0069AB" fill-opacity="1.000000" fill-rule="nonzero"/>
		<path id="Vector" d="M79.8 42.8C78.5 42.8 77.4 43.9 77.4 45.2C77.4 46.5 78.5 47.6 79.8 47.6C81.1 47.6 82.2 46.5 82.2 45.2C82.2 43.9 81.1 42.8 79.8 42.8Z" fill="#0069AB" fill-opacity="1.000000" fill-rule="nonzero"/>
		<path id="Vector" d="M68.69 42.8C67.39 42.8 66.29 43.9 66.29 45.2C66.29 46.5 67.39 47.6 68.69 47.6C69.99 47.6 71.09 46.5 71.09 45.2C71.09 43.9 69.99 42.8 68.69 42.8Z" fill="#0069AB" fill-opacity="1.000000" fill-rule="nonzero"/>
		<path id="Vector" d="M57.6 42.8C56.3 42.8 55.2 43.9 55.2 45.2C55.2 46.5 56.3 47.6 57.6 47.6C58.9 47.6 60 46.5 60 45.2C60.1 43.9 59 42.8 57.6 42.8Z" fill="#0069AB" fill-opacity="1.000000" fill-rule="nonzero"/>
		<path id="Vector" d="M46.6 42.8C45.3 42.8 44.2 43.9 44.2 45.2C44.2 46.5 45.3 47.6 46.6 47.6C47.9 47.6 49 46.5 49 45.2C49 43.9 47.9 42.8 46.6 42.8Z" fill="#0069AB" fill-opacity="1.000000" fill-rule="nonzero"/>
		<path id="Vector" d="M35.49 42.8C34.19 42.8 33.09 43.9 33.09 45.2C33.09 46.5 34.19 47.6 35.49 47.6C36.79 47.6 37.89 46.5 37.89 45.2C37.99 43.9 36.89 42.8 35.49 42.8Z" fill="#0069AB" fill-opacity="1.000000" fill-rule="nonzero"/>
		<path id="Vector" d="M101.9 54.2C100.6 54.2 99.5 55.3 99.5 56.6C99.5 57.9 100.6 59 101.9 59C103.2 59 104.3 57.9 104.3 56.6C104.3 55.3 103.2 54.2 101.9 54.2Z" fill="#0069AB" fill-opacity="1.000000" fill-rule="nonzero"/>
		<path id="Vector" d="M90.8 54.2C89.5 54.2 88.4 55.3 88.4 56.6C88.4 57.9 89.5 59 90.8 59C92.1 59 93.2 57.9 93.2 56.6C93.2 55.3 92.2 54.2 90.8 54.2Z" fill="#0069AB" fill-opacity="1.000000" fill-rule="nonzero"/>
		<path id="Vector" d="M79.8 54.2C78.5 54.2 77.4 55.3 77.4 56.6C77.4 57.9 78.5 59 79.8 59C81.1 59 82.2 57.9 82.2 56.6C82.2 55.3 81.1 54.2 79.8 54.2Z" fill="#0069AB" fill-opacity="1.000000" fill-rule="nonzero"/>
		<path id="Vector" d="M68.69 54.2C67.39 54.2 66.29 55.3 66.29 56.6C66.29 57.9 67.39 59 68.69 59C69.99 59 71.09 57.9 71.09 56.6C71.09 55.3 69.99 54.2 68.69 54.2Z" fill="#0069AB" fill-opacity="1.000000" fill-rule="nonzero"/>
		<path id="Vector" d="M57.6 54.2C56.3 54.2 55.2 55.3 55.2 56.6C55.2 57.9 56.3 59 57.6 59C58.9 59 60 57.9 60 56.6C60 55.3 59 54.2 57.6 54.2Z" fill="#0069AB" fill-opacity="1.000000" fill-rule="nonzero"/>
		<path id="Vector" d="M46.6 54.2C45.3 54.2 44.2 55.3 44.2 56.6C44.2 57.9 45.3 59 46.6 59C47.9 59 49 57.9 49 56.6C49 55.3 47.9 54.2 46.6 54.2Z" fill="#0069AB" fill-opacity="1.000000" fill-rule="nonzero"/>
		<path id="Vector" d="M35.49 54.2C34.19 54.2 33.09 55.3 33.09 56.6C33.09 57.9 34.19 59 35.49 59C36.79 59 37.89 57.9 37.89 56.6C37.89 55.3 36.89 54.2 35.49 54.2Z" fill="#0069AB" fill-opacity="1.000000" fill-rule="nonzero"/>
	</g>
</svg>
