<svg width="126.000000" height="124.000000" viewBox="0 0 126 124" fill="none" xmlns="http://www.w3.org/2000/svg" xmlns:xlink="http://www.w3.org/1999/xlink">
	<desc>
			Created with Pixso.
	</desc>
	<defs>
		<linearGradient x1="102.893425" y1="31.000000" x2="21.230410" y2="32.788475" id="paint_linear_76_334_0" gradientUnits="userSpaceOnUse">
			<stop stop-color="#0179B4"/>
			<stop offset="0.954688" stop-color="#88D8FF"/>
		</linearGradient>
	</defs>
	<g opacity="0.700000">
		<path id="Vector" d="M60.43 7.44C60.05 6.69 59.87 5.89 59.87 5.1C59.87 3.29 60.82 1.53 62.55 0.55C65.03 -0.69 68.05 0.2 69.46 2.67C69.84 3.42 70.02 4.22 70.02 5C70.02 6.82 69.07 8.57 67.34 9.56C64.68 10.79 61.67 9.91 60.43 7.44ZM47.31 9.2C44.83 10.44 41.82 9.56 40.4 7.08C39.98 6.33 39.8 5.54 39.8 4.75C39.8 3.86 40.03 2.98 40.4 2.14C42.53 1.26 44.65 0.55 46.96 0.02C47.84 0.55 48.73 1.26 49.26 2.14C49.72 3 49.94 3.89 49.94 4.76C49.94 6.57 48.99 8.25 47.31 9.2ZM85.23 10.79C82.75 12.03 79.74 11.15 78.32 8.67C77.95 7.92 77.77 7.13 77.77 6.34C77.77 4.53 78.72 2.77 80.45 1.79C81.34 1.43 82.22 1.08 83.11 1.26C84.17 1.61 85.06 1.96 85.94 2.32C86.48 2.67 87.01 3.2 87.36 3.91C87.74 4.71 87.92 5.54 87.92 6.35C87.92 8.21 86.96 9.93 85.23 10.79ZM98.17 9.2C98.17 9.03 97.99 8.85 97.99 8.85C99.41 9.73 100.83 10.79 102.25 11.85C100.65 11.67 99.06 10.79 98.17 9.2ZM38.63 18.92C39 19.67 39.18 20.46 39.18 21.25C39.18 23.06 38.23 24.82 36.5 25.8C34.02 27.04 31.01 26.16 29.59 23.69C29.21 22.94 29.03 22.14 29.03 21.35C29.03 19.54 29.99 17.78 31.72 16.8C34.37 15.56 37.39 16.62 38.63 18.92ZM49.62 24.21C49.24 23.47 49.06 22.67 49.06 21.88C49.06 20.07 50.01 18.31 51.74 17.33C54.22 16.09 57.24 16.97 58.65 19.45C59.03 20.2 59.21 20.99 59.21 21.78C59.21 23.59 58.26 25.35 56.53 26.33C54.05 27.57 51.03 26.51 49.62 24.21ZM69.46 24.57C69.09 23.82 68.91 23.02 68.91 22.23C68.91 20.42 69.86 18.67 71.59 17.68C74.07 16.44 77.08 17.33 78.5 19.8C78.88 20.55 79.06 21.35 79.06 22.14C79.06 23.95 78.1 25.7 76.37 26.69C73.89 27.92 70.88 27.04 69.46 24.57ZM16.83 25.45C15.06 26.51 12.75 26.16 11.34 24.92C13.29 22.27 15.41 19.62 17.72 17.15C18.25 17.5 18.6 18.03 18.96 18.56C19.33 19.31 19.51 20.13 19.51 20.93C19.51 22.78 18.56 24.59 16.83 25.45ZM87.54 25.8C87.16 25.06 86.98 24.26 86.98 23.47C86.98 21.66 87.94 19.9 89.67 18.92C92.15 17.68 95.16 18.56 96.58 21.04C96.95 21.79 97.13 22.58 97.13 23.37C97.13 25.18 96.18 26.94 94.45 27.92C91.97 29.34 88.78 28.28 87.54 25.8ZM114.3 28.28C111.82 29.51 108.81 28.63 107.39 26.16C107.01 25.41 106.83 24.61 106.83 23.82C106.83 22.01 107.79 20.25 109.51 19.27C109.69 19.09 109.87 19.09 110.05 19.09C112.17 21.57 114.12 24.04 115.89 26.86C115.54 27.39 114.83 27.92 114.3 28.28ZM27.99 35.69C28.37 36.44 28.55 37.24 28.55 38.03C28.55 39.84 27.6 41.6 25.87 42.58C23.39 43.82 20.37 42.93 18.96 40.46C18.58 39.71 18.4 38.91 18.4 38.13C18.4 36.32 19.35 34.56 21.08 33.58C23.56 32.34 26.75 33.22 27.99 35.69ZM38.98 40.82C38.61 40.07 38.43 39.27 38.43 38.48C38.43 36.67 39.38 34.91 41.11 33.93C43.59 32.69 46.6 33.58 48.02 36.05C48.4 36.8 48.58 37.6 48.58 38.38C48.58 40.19 47.62 41.95 45.89 42.94C43.41 44.17 40.22 43.29 38.98 40.82ZM6.02 42.05C4.96 42.58 3.54 42.76 2.48 42.58C3.54 39.4 4.6 36.4 6.2 33.4C6.91 33.93 7.62 34.46 8.15 35.34C8.52 36.09 8.7 36.89 8.7 37.67C8.7 39.47 7.75 41.19 6.02 42.05ZM58.83 41.17C58.45 40.42 58.27 39.62 58.27 38.83C58.27 37.02 59.23 35.26 60.96 34.28C63.44 33.04 66.45 33.93 67.87 36.4C68.24 37.15 68.42 37.95 68.42 38.74C68.42 40.55 67.47 42.3 65.74 43.29C63.26 44.52 60.25 43.64 58.83 41.17ZM78.68 41.52C78.3 40.77 78.12 39.97 78.12 39.19C78.12 37.37 79.08 35.62 80.8 34.63C83.29 33.4 86.3 34.28 87.72 36.75C88.09 37.5 88.27 38.3 88.27 39.09C88.27 40.9 87.32 42.66 85.59 43.64C83.11 44.88 80.1 43.99 78.68 41.52ZM96.75 42.93C96.38 42.18 96.2 41.39 96.2 40.6C96.2 38.79 97.15 37.03 98.88 36.05C101.36 34.81 104.38 35.69 105.79 38.17C106.17 38.92 106.35 39.71 106.35 40.5C106.35 42.31 105.4 44.07 103.67 45.05C101.01 46.29 97.99 45.41 96.75 42.93ZM123.34 45.41C120.86 46.64 117.84 45.76 116.43 43.29C116.05 42.54 115.87 41.74 115.87 40.95C115.87 39.14 116.82 37.39 118.55 36.4C119.26 36.05 119.97 35.87 120.68 35.87C121.92 38.87 122.98 41.88 123.87 45.05C123.69 45.23 123.51 45.23 123.34 45.41ZM17.36 52.47C17.74 53.22 17.92 54.02 17.92 54.81C17.92 56.62 16.96 58.38 15.23 59.36C12.75 60.6 9.74 59.71 8.32 57.24C7.89 56.48 7.69 55.68 7.69 54.88C7.69 53.08 8.73 51.33 10.45 50.35C12.93 48.94 15.94 50 17.36 52.47ZM37.21 52.83C37.59 53.57 37.77 54.37 37.77 55.16C37.77 56.97 36.81 58.73 35.08 59.71C32.6 60.95 29.59 60.07 28.17 57.59C27.8 56.84 27.62 56.05 27.62 55.26C27.62 53.45 28.57 51.69 30.3 50.71C32.78 49.47 35.79 50.35 37.21 52.83ZM48.2 57.95C47.82 57.2 47.64 56.4 47.64 55.61C47.64 53.8 48.59 52.04 50.32 51.06C52.8 49.82 55.82 50.7 57.23 53.18C57.61 53.93 57.79 54.72 57.79 55.51C57.79 57.32 56.84 59.08 55.11 60.06C52.45 61.3 49.44 60.42 48.2 57.95ZM68.05 58.3C67.67 57.55 67.49 56.75 67.49 55.96C67.49 54.15 68.44 52.4 70.17 51.41C72.65 50.17 75.67 51.06 77.08 53.53C77.46 54.28 77.64 55.08 77.64 55.87C77.64 57.68 76.69 59.43 74.96 60.42C72.48 61.65 69.29 60.77 68.05 58.3ZM87.89 58.65C87.52 57.9 87.34 57.1 87.34 56.32C87.34 54.51 88.29 52.75 90.02 51.76C92.5 50.53 95.51 51.41 96.93 53.88C97.31 54.63 97.49 55.43 97.49 56.22C97.49 58.03 96.53 59.79 94.81 60.77C92.32 62.01 89.13 61.12 87.89 58.65ZM105.97 60.06C105.59 59.32 105.41 58.52 105.41 57.73C105.41 55.92 106.37 54.16 108.1 53.18C110.58 51.94 113.59 52.82 115.01 55.3C115.38 56.05 115.57 56.84 115.57 57.63C115.57 59.44 114.61 61.2 112.88 62.18C110.22 63.42 107.21 62.54 105.97 60.06ZM125.82 55.65C126 57.42 126 59.18 126 60.77C126 60.59 125.82 60.42 125.82 60.42C125.38 59.62 125.15 58.78 125.15 57.97C125.15 57.15 125.38 56.36 125.82 55.65ZM6.55 69.07C6.93 69.82 7.11 70.62 7.11 71.41C7.11 73.22 6.15 74.97 4.43 75.96C3.54 76.49 2.48 76.67 1.59 76.49C0.7 73.31 0.17 70.13 0 66.95C2.48 65.72 5.31 66.78 6.55 69.07ZM26.58 69.42C26.95 70.17 27.13 70.97 27.13 71.76C27.13 73.57 26.18 75.33 24.45 76.31C21.97 77.55 18.96 76.67 17.54 74.19C17.16 73.44 16.98 72.65 16.98 71.86C16.98 70.05 17.94 68.29 19.67 67.31C22.15 66.07 25.16 66.95 26.58 69.42ZM46.43 69.78C46.8 70.53 46.98 71.33 46.98 72.11C46.98 73.93 46.03 75.68 44.3 76.67C41.82 77.9 38.81 77.02 37.39 74.55C37.01 73.8 36.83 73 36.83 72.21C36.83 70.4 37.79 68.64 39.51 67.66C41.99 66.42 45.01 67.31 46.43 69.78ZM57.41 74.9C57.04 74.15 56.86 73.35 56.86 72.56C56.86 70.75 57.81 69 59.54 68.01C62.02 66.78 65.03 67.66 66.45 70.13C66.83 70.88 67.01 71.68 67.01 72.47C67.01 74.28 66.05 76.04 64.32 77.02C61.67 78.26 58.65 77.37 57.41 74.9ZM77.26 75.25C76.88 74.5 76.7 73.71 76.7 72.92C76.7 71.11 77.66 69.35 79.39 68.37C81.87 67.13 84.88 68.01 86.3 70.49C86.67 71.24 86.86 72.03 86.86 72.82C86.86 74.63 85.9 76.39 84.17 77.37C81.51 78.79 78.5 77.73 77.26 75.25ZM97.11 75.78C96.73 75.03 96.55 74.24 96.55 73.45C96.55 71.64 97.51 69.88 99.24 68.9C101.72 67.66 104.73 68.54 106.15 71.01C106.52 71.76 106.7 72.56 106.7 73.35C106.7 75.16 105.75 76.92 104.02 77.9C101.54 79.14 98.35 78.08 97.11 75.78ZM115.01 77.02C114.63 76.27 114.45 75.47 114.45 74.68C114.45 72.87 115.41 71.12 117.14 70.13C119.62 68.9 122.63 69.78 124.05 72.25C124.4 72.96 124.58 73.66 124.58 74.19C124.4 75.25 124.05 76.14 123.87 77.2C123.34 77.9 122.81 78.61 121.92 78.96C119.44 80.38 116.43 79.49 115.01 77.02ZM9.03 84.08C11.51 82.85 14.53 83.73 15.94 86.2C16.32 86.95 16.5 87.75 16.5 88.54C16.5 90.35 15.55 92.11 13.82 93.09C12.05 94.15 9.74 93.8 8.32 92.56C7.97 92.03 7.61 91.32 7.26 90.79C6.91 90.26 6.73 89.56 6.37 89.03C6.36 88.87 6.35 88.7 6.35 88.54C6.35 86.77 7.25 85.05 9.03 84.08ZM35.62 86.56C35.99 87.31 36.17 88.1 36.17 88.89C36.17 90.7 35.22 92.46 33.49 93.44C31.01 94.68 28 93.8 26.58 91.32C26.2 90.57 26.02 89.78 26.02 88.99C26.02 87.18 26.98 85.42 28.7 84.44C31.36 83.2 34.38 84.08 35.62 86.56ZM55.64 86.91C56.02 87.66 56.2 88.46 56.2 89.25C56.2 91.06 55.24 92.81 53.51 93.8C51.03 95.03 48.02 94.15 46.6 91.68C46.23 90.93 46.05 90.13 46.05 89.34C46.05 87.53 47 85.77 48.73 84.79C51.21 83.55 54.22 84.44 55.64 86.91ZM75.49 87.26C75.87 88.01 76.05 88.81 76.05 89.6C76.05 91.41 75.09 93.17 73.36 94.15C70.88 95.39 67.87 94.5 66.45 92.03C66.08 91.28 65.89 90.48 65.89 89.7C65.89 87.88 66.85 86.13 68.58 85.14C71.06 83.91 74.07 84.79 75.49 87.26ZM86.3 92.38C85.92 91.63 85.74 90.84 85.74 90.05C85.74 88.24 86.7 86.48 88.42 85.5C90.91 84.26 93.92 85.14 95.34 87.61C95.71 88.36 95.89 89.16 95.89 89.95C95.89 91.76 94.94 93.52 93.21 94.5C90.73 95.74 87.72 94.86 86.3 92.38ZM106.33 92.74C105.95 91.99 105.77 91.19 105.77 90.4C105.77 88.59 106.72 86.83 108.45 85.85C110.93 84.61 113.95 85.5 115.36 87.97C115.74 88.72 115.92 89.52 115.92 90.3C115.92 92.11 114.97 93.87 113.24 94.86C110.58 96.09 107.57 95.21 106.33 92.74ZM24.98 103.16C25.36 103.86 25.54 104.64 25.54 105.41C25.54 107.15 24.63 108.89 23.03 109.87C20.55 107.93 18.25 105.63 15.95 103.16C16.48 102.27 17.19 101.57 18.07 101.04C20.55 99.8 23.74 100.69 24.98 103.16ZM44.83 103.51C45.21 104.26 45.39 105.06 45.39 105.85C45.39 107.66 44.43 109.41 42.7 110.4C40.22 111.64 37.21 110.75 35.79 108.28C35.42 107.53 35.24 106.73 35.24 105.94C35.24 104.13 36.19 102.38 37.92 101.39C40.4 100.16 43.59 101.22 44.83 103.51ZM64.68 104.04C65.05 104.79 65.23 105.59 65.23 106.38C65.23 108.19 64.28 109.94 62.55 110.93C60.07 112.16 57.06 111.28 55.64 108.81C55.26 108.06 55.08 107.26 55.08 106.47C55.08 104.66 56.04 102.91 57.77 101.92C60.42 100.69 63.44 101.57 64.68 104.04ZM84.53 104.39C84.9 105.14 85.08 105.94 85.08 106.73C85.08 108.54 84.13 110.3 82.4 111.28C79.92 112.52 76.91 111.63 75.49 109.16C75.11 108.41 74.93 107.61 74.93 106.83C74.93 105.01 75.89 103.26 77.62 102.27C80.27 101.04 83.29 101.92 84.53 104.39ZM95.51 109.51C95.14 108.76 94.96 107.97 94.96 107.18C94.96 105.37 95.91 103.61 97.64 102.63C100.12 101.39 103.13 102.27 104.55 104.75C104.95 105.54 105.15 106.34 105.15 107.13C105.15 107.4 105.13 107.66 105.08 107.92C103.49 109.34 101.54 110.93 99.77 112.16C97.99 111.99 96.4 111.1 95.51 109.51ZM54.05 120.64C54.44 121.3 54.64 121.96 54.64 122.63C54.64 122.85 54.62 123.07 54.58 123.29C51.21 122.94 48.02 122.23 44.83 121.17C45.18 120.11 46.07 119.05 47.13 118.52C49.62 117.28 52.8 118.17 54.05 120.64ZM67.16 119.05C69.64 117.81 72.65 118.7 74.07 121.17C74.43 121.7 74.6 122.41 74.6 122.94C71.24 123.64 67.87 123.82 64.5 124C64.49 123.82 64.48 123.64 64.48 123.47C64.48 121.56 65.37 119.86 67.16 119.05Z" fill="url(#paint_linear_76_334_0)" fill-opacity="1.000000" fill-rule="evenodd"/>
	</g>
</svg>
