<svg width="2.000000" height="116.000000" viewBox="0 0 2 116" fill="none" xmlns="http://www.w3.org/2000/svg" xmlns:xlink="http://www.w3.org/1999/xlink">
	<desc>
			Created with Pixso.
	</desc>
	<defs/>
	<path id="Line 2" d="M2 5.1L2 1C2 0.43 1.56 0 1 0C0.44 0 0 0.43 0 1L0 5.1Q0 5.52 0.29 5.81Q0.58 6.1 1 6.1Q1.41 6.1 1.7 5.81Q2 5.52 2 5.1ZM2 21.53L2 13.32Q2 12.9 1.7 12.61Q1.41 12.32 1 12.32Q0.58 12.32 0.29 12.61Q0 12.9 0 13.32L0 21.53Q0 21.95 0.29 22.24Q0.58 22.53 1 22.53Q1.41 22.53 1.7 22.24Q2 21.95 2 21.53ZM2 37.96L2 29.75Q2 29.33 1.7 29.04Q1.41 28.75 1 28.75Q0.58 28.75 0.29 29.04Q0 29.33 0 29.75L0 37.96Q0 38.37 0.29 38.67Q0.58 38.96 1 38.96Q1.41 38.96 1.7 38.67Q2 38.37 2 37.96ZM2 54.39L2 46.17Q2 45.76 1.7 45.47Q1.41 45.17 1 45.17Q0.58 45.17 0.29 45.47Q0 45.76 0 46.17L0 54.39Q0 54.8 0.29 55.09Q0.58 55.39 1 55.39Q1.41 55.39 1.7 55.09Q2 54.8 2 54.39ZM2 70.82L2 62.6Q2 62.19 1.7 61.9Q1.41 61.6 1 61.6Q0.58 61.6 0.29 61.9Q0 62.19 0 62.6L0 70.82Q0 71.23 0.29 71.52Q0.58 71.82 1 71.82Q1.41 71.82 1.7 71.52Q2 71.23 2 70.82ZM2 87.25L2 79.03Q2 78.62 1.7 78.32Q1.41 78.03 1 78.03Q0.58 78.03 0.29 78.32Q0 78.62 0 79.03L0 87.25Q0 87.66 0.29 87.95Q0.58 88.25 1 88.25Q1.41 88.25 1.7 87.95Q2 87.66 2 87.25ZM2 103.67L2 95.46Q2 95.05 1.7 94.75Q1.41 94.46 1 94.46Q0.58 94.46 0.29 94.75Q0 95.05 0 95.46L0 103.67Q0 104.09 0.29 104.38Q0.58 104.67 1 104.67Q1.41 104.67 1.7 104.38Q2 104.09 2 103.67ZM2 116L2 111.89Q2 111.47 1.7 111.18Q1.41 110.89 1 110.89Q0.58 110.89 0.29 111.18Q0 111.47 0 111.89L0 116L2 116Z" fill="#B6E6FF" fill-opacity="1.000000" fill-rule="evenodd"/>
</svg>
