<svg width="104.000000" height="106.000000" viewBox="0 0 104 106" fill="none" xmlns="http://www.w3.org/2000/svg" xmlns:xlink="http://www.w3.org/1999/xlink">
	<desc>
			Created with Pixso.
	</desc>
	<defs>
		<linearGradient x1="86.809219" y1="45.321087" x2="38.051361" y2="45.321087" id="paint_linear_76_605_0" gradientUnits="userSpaceOnUse">
			<stop stop-color="#0179B4"/>
			<stop offset="0.908717" stop-color="#88D8FF"/>
		</linearGradient>
	</defs>
	<path id="Vector" d="M90.64 58.68L90.64 47.89C90.64 46.79 89.74 45.89 88.64 45.89L61.34 45.89C60.24 45.89 59.34 45 59.34 43.89L59.34 16.79C59.34 15.69 58.45 14.79 57.34 14.79L33.29 14.79C32.19 14.79 31.29 15.69 31.29 16.79L31.29 44.09C31.29 45.19 30.4 46.09 29.29 46.09L2 46.09C0.89 46.09 0 46.98 0 48.09L0 72.14C0 73.24 0.89 74.14 2 74.14L29.29 74.14C30.4 74.14 31.29 75.03 31.29 76.14L31.29 103.43C31.29 104.54 32.19 105.43 33.29 105.43L57.34 105.43C58.45 105.43 59.34 104.54 59.34 103.43L59.34 76.14C59.34 75.03 60.24 74.14 61.34 74.14L88.64 74.14C89.74 74.14 90.64 73.24 90.64 72.14L90.64 58.68ZM84.72 54L84.72 66.03C84.72 67.13 83.83 68.03 82.72 68.03L55.43 68.03C54.32 68.03 53.43 68.93 53.43 70.03L53.43 97.33C53.43 98.43 52.53 99.33 51.43 99.33L39.4 99.33C38.29 99.33 37.4 98.43 37.4 97.33L37.4 70.03C37.4 68.93 36.5 68.03 35.4 68.03L8.1 68.03C7 68.03 6.1 67.13 6.1 66.03L6.1 54C6.1 52.9 7 52 8.1 52L35.4 52C36.5 52 37.4 51.11 37.4 50L37.4 22.71C37.4 21.6 38.29 20.71 39.4 20.71L51.43 20.71C52.53 20.71 53.43 21.6 53.43 22.71L53.43 50C53.43 51.11 54.32 52 55.43 52L82.72 52C83.83 52 84.72 52.9 84.72 54Z" fill="#99BDD1" fill-opacity="1.000000" fill-rule="nonzero"/>
	<path id="Union" d="M104 33.1047L104 57.3469C104 58.4514 103.105 59.3469 102 59.3469L74.7046 59.3469C73.6 59.3469 72.7046 60.2422 72.7046 61.3469L72.7046 88.6423C72.7046 89.7468 71.8091 90.6423 70.7046 90.6423L46.6532 90.6423C45.5486 90.6423 44.6532 89.7468 44.6532 88.6423L44.6532 61.3469C44.6532 60.2422 43.7578 59.3469 42.6532 59.3469L15.3578 59.3469C14.2532 59.3469 13.3578 58.4514 13.3578 57.3469L13.3578 33.2954C13.3578 32.1909 14.2532 31.2954 15.3578 31.2954L42.6532 31.2954C43.7578 31.2954 44.6532 30.4001 44.6532 29.2954L44.6532 2C44.6532 0.895508 45.5486 0 46.6532 0L70.7046 0C71.8091 0 72.7046 0.895508 72.7046 2L72.7046 29.1047C72.7046 30.2092 73.6 31.1047 74.7046 31.1047L102 31.1047C103.105 31.1047 104 32 104 33.1047Z" clip-rule="evenodd" fill="url(#paint_linear_76_605_0)" fill-opacity="1.000000" fill-rule="evenodd"/>
</svg>
