<svg width="90.000000" height="92.000000" viewBox="0 0 90 92" fill="none" xmlns="http://www.w3.org/2000/svg" xmlns:xlink="http://www.w3.org/1999/xlink">
	<desc>
			Created with Pixso.
	</desc>
	<defs/>
	<path id="Vector" d="M0 55.99C0 51.53 0.87 47.11 2.57 42.98C4.27 38.86 6.76 35.11 9.91 31.95C13.05 28.8 16.78 26.29 20.89 24.58C24.99 22.87 29.39 21.99 33.84 21.99L33.84 55.99L0 55.99Z" fill="#00A4F4" fill-opacity="1.000000" fill-rule="evenodd"/>
	<path id="Vector" d="M0 56C0 60.72 0.87 65.4 2.57 69.77C4.27 74.14 6.76 78.11 9.91 81.45C13.05 84.79 16.78 87.45 20.89 89.25C24.99 91.06 29.39 92 33.84 92L33.84 56L0 56Z" fill="#2CBEFF" fill-opacity="1.000000" fill-rule="evenodd"/>
	<path id="Vector" d="M67.68 56C67.68 60.72 66.8 65.4 65.1 69.77C63.4 74.14 60.91 78.11 57.77 81.45C54.62 84.79 50.89 87.45 46.79 89.25C42.68 91.06 38.28 92 33.84 92L33.84 56L67.68 56Z" fill="#75D4FF" fill-opacity="1.000000" fill-rule="evenodd"/>
	<path id="Vector" d="M89.57 26C89.57 40.35 77.99 52 63.7 52L37.82 52L37.82 26C37.82 11.64 49.4 0 63.7 0C77.99 0 89.57 11.64 89.57 26Z" fill="#0084D4" fill-opacity="1.000000" fill-rule="evenodd"/>
</svg>
