<svg width="46.000000" height="48.000000" viewBox="0 0 46 48" fill="none" xmlns="http://www.w3.org/2000/svg" xmlns:xlink="http://www.w3.org/1999/xlink">
	<desc>
			Created with Pixso.
	</desc>
	<defs/>
	<path id="Vector" d="M-1 29.21C-1 26.88 -0.54 24.58 0.35 22.42C1.25 20.27 2.55 18.32 4.2 16.67C5.85 15.02 7.81 13.72 9.96 12.82C12.12 11.93 14.42 11.47 16.76 11.47L16.76 29.21L-1 29.21Z" fill="#00A4F4" fill-opacity="1.000000" fill-rule="evenodd"/>
	<path id="Vector" d="M-1 29.21C-1 31.68 -0.54 34.12 0.35 36.4C1.25 38.68 2.55 40.75 4.2 42.49C5.85 44.24 7.81 45.62 9.96 46.57C12.12 47.51 14.42 48 16.76 48L16.76 29.21L-1 29.21Z" fill="#2CBEFF" fill-opacity="1.000000" fill-rule="evenodd"/>
	<path id="Vector" d="M34.51 29.21C34.51 31.68 34.05 34.12 33.16 36.4C32.26 38.68 30.96 40.75 29.31 42.49C27.66 44.24 25.7 45.62 23.55 46.57C21.4 47.51 19.09 48 16.76 48L16.76 29.21L34.51 29.21Z" fill="#75D4FF" fill-opacity="1.000000" fill-rule="evenodd"/>
	<path id="Vector" d="M46 13.56C46 21.05 39.92 27.13 32.42 27.13L18.84 27.13L18.84 13.56C18.84 6.07 24.92 0 32.42 0C39.92 0 46 6.07 46 13.56Z" fill="#0084D4" fill-opacity="1.000000" fill-rule="evenodd"/>
</svg>
